<svg id="Layer_1" data-name="Layer 1" xmlns="http://www.w3.org/2000/svg" viewBox="0 0 743.58 167.83"><path d="M146.62,118.47V16.38h13.19c8.89,0,15.83,1.67,20.42,6s7,11,7,21.11c0,4.86-.42,8.47-2,11.8s-3.89,6.12-7.36,9.31c3.75,2.08,6.52,6,8.75,12.5a38.84,38.84,0,0,1,1.67,12.5c0,7.64-1.4,14.44-4.86,19.72s-9.45,8.75-18.34,9.17Zm15-60a11.57,11.57,0,0,0,6.67-1.53c2.5-1.67,4.44-5,4.44-12.08s-1.94-10.42-4.44-12.09a11.47,11.47,0,0,0-6.67-1.52Zm0,45.14c1.25,0,4.17.28,6.67-1.53s4.44-5.83,4.44-14.17-1.94-12.36-4.44-14.16-5.42-1.53-6.67-1.53Zm0,0" transform="translate(-4.15 -3)"/><path d="M217.31,16.38h34.31V31.8H232.31V58.6H246.2V75H232.31v28.05h19.31v15.42H217.31Zm0,0" transform="translate(-4.15 -3)"/><path d="M275.93,118.47,291.34,16.38h18.34l15.41,102.09H310.51l-2.78-20.83H293.29l-2.78,20.83Zm25.41-68.89-.41-2.64h-.84l-.41,2.64L295.37,81.8h10.28Zm0,0" transform="translate(-4.15 -3)"/><path d="M391.2,83.47v14a27.67,27.67,0,0,1-2.5,11.11,19.11,19.11,0,0,1-6,7.5c-2.78,2.22-6.53,3.47-11.53,3.47s-8.88-1.25-11.66-3.47a18.75,18.75,0,0,1-5.84-7.5,28,28,0,0,1-2.5-11.11V37.36a27.89,27.89,0,0,1,2.5-11,19.05,19.05,0,0,1,5.84-7.63,19,19,0,0,1,11.66-3.48,18.64,18.64,0,0,1,11.53,3.48,19.41,19.41,0,0,1,6,7.63,27.54,27.54,0,0,1,2.5,11v14h-14v-14A8.73,8.73,0,0,0,375,31a4.9,4.9,0,0,0-3.47-1.11c-2.64,0-3.89,1.94-4.58,3.75a14.88,14.88,0,0,0-.7,3.75V97.5a9.6,9.6,0,0,0,2.37,6.39,4,4,0,0,0,2.91,1.11,4.83,4.83,0,0,0,5.14-3.75,9.69,9.69,0,0,0,.56-3.75v-14Zm0,0" transform="translate(-4.15 -3)"/><path d="M447,74H435.37v44.45h-15V16.38h15V58.6H447V16.38h15V118.47H447Zm0,0" transform="translate(-4.15 -3)"/><path d="M493.29,118.47V16.38h13.19c8.9,0,15.84,1.67,20.42,6s7,11,7,21.11c0,4.86-.42,8.47-2,11.8s-3.89,6.12-7.36,9.31c3.75,2.08,6.53,6,8.75,12.5A38.84,38.84,0,0,1,535,89.58c0,7.64-1.39,14.44-4.86,19.72s-9.45,8.75-18.34,9.17Zm15-60A11.57,11.57,0,0,0,515,56.94c2.5-1.67,4.44-5,4.44-12.08S517.46,34.44,515,32.77a11.47,11.47,0,0,0-6.67-1.52Zm0,45.14c1.25,0,4.17.28,6.67-1.53s4.44-5.83,4.44-14.17S517.46,75.55,515,73.75s-5.42-1.53-6.67-1.53Zm0,0" transform="translate(-4.15 -3)"/><path d="M559.82,118.47,575.23,16.38h18.34L609,118.47H594.4l-2.77-20.83H577.18l-2.78,20.83Zm25.41-68.89-.41-2.64H584l-.41,2.64L579.26,81.8h10.28Zm0,0" transform="translate(-4.15 -3)"/><path d="M636.07,118.47V16.38h13.19c8.89,0,15.83,1.67,20.42,6s7,11,7,21.11c0,4.86-.42,8.47-2,11.8s-3.89,6.12-7.36,9.31c3.75,2.08,6.52,6,8.75,12.5a38.88,38.88,0,0,1,1.66,12.5c0,7.64-1.39,14.44-4.85,19.72s-9.45,8.75-18.34,9.17Zm15-60a11.55,11.55,0,0,0,6.66-1.53c2.5-1.67,4.45-5,4.45-12.08s-1.95-10.42-4.45-12.09a11.44,11.44,0,0,0-6.66-1.52Zm0,45.14c1.25,0,4.16.28,6.66-1.53s4.45-5.83,4.45-14.17-1.95-12.36-4.45-14.16-5.41-1.53-6.66-1.53Zm0,0" transform="translate(-4.15 -3)"/><path d="M724.4,49l.42,1h.28l.41-1L733,16.38h14.72L732.46,75v43.47h-15V75L702.18,16.38H716.9Zm0,0" transform="translate(-4.15 -3)"/><path d="M161.23,141.44a2.85,2.85,0,0,1,.28,1.4,10.88,10.88,0,0,1-.1,1.38,15.59,15.59,0,0,1-1.18,3.95c-.19.45-.41.92-.66,1.42s-.52.93-.7,1.29a1.66,1.66,0,0,1-.75.51c-.36.13-.55,0-.58-.37.31-1,.63-2.09,1-3.32a26.6,26.6,0,0,0,.56-2.64,8.1,8.1,0,0,0,0-1.4c-.06-.39-.15-.54-.28-.44s-.11.12-.14.28a3,3,0,0,0,0,.53,1.78,1.78,0,0,1-.19.85,13.64,13.64,0,0,1-1.05,1.32c-.34.38-.69.78-1,1.22s-.59.7-.72.89l-.7.91c-.35.4-.67.81-1,1.22a38.15,38.15,0,0,0-2.36,3,7.13,7.13,0,0,0-1.14,1.87c0,.23.1.35.29.35a1.45,1.45,0,0,0,.76-.35,10,10,0,0,1,1.84-.93,23,23,0,0,1,2.3-.94L157,153a4.59,4.59,0,0,1,1.57,0,2.9,2.9,0,0,1,1.68,1.09,3.32,3.32,0,0,1,.68,2,8.15,8.15,0,0,1-.38,1.93c-.29.85-.61,1.67-.95,2.46a17.46,17.46,0,0,1-2.22,3.25,27.59,27.59,0,0,1-3.06,3.29c-.5.45-1,.86-1.47,1.24a5.93,5.93,0,0,1-1,.65,2.67,2.67,0,0,1-1,.28c-.42,0-.84.05-1.28.05A7.49,7.49,0,0,1,148,169a4.23,4.23,0,0,1-2.12-1.26,5.07,5.07,0,0,1-.8-1.42,4.41,4.41,0,0,1-.28-1.66v-.28q0-.13.33-.33c.21-.12.43-.05.65.24a4.9,4.9,0,0,1,.67,1.14,2.7,2.7,0,0,0,.89,1,1.66,1.66,0,0,0,1.38.23,3.6,3.6,0,0,0,1.22-.56,12.74,12.74,0,0,0,2.55-2.08A26.59,26.59,0,0,0,155,161.2c.41-.54.76-1,1-1.51a7.22,7.22,0,0,0,.7-1.27,3.76,3.76,0,0,1,.38-.81,2.42,2.42,0,0,1,.42-.61c.19-.19.28-.31.28-.38s0-.09-.14-.09A5.47,5.47,0,0,0,156,157a18,18,0,0,0-2.45,1.14,12,12,0,0,1-4.39,1.59,2.92,2.92,0,0,1-2.65-.89,1.68,1.68,0,0,1-.32-.56,2.47,2.47,0,0,1-.14-.95,4,4,0,0,1,0-1.13,10,10,0,0,1,.57-1.37,26.87,26.87,0,0,1,1.84-3.11c.75-1.1,1.57-2.19,2.45-3.25.38-.48.75-1,1.13-1.42s.62-.75.75-.94c.57-.76,1.34-1.68,2.31-2.75a15.88,15.88,0,0,1,2-2,2.42,2.42,0,0,1,1-.48,5,5,0,0,1,1.22-.15,3.42,3.42,0,0,1,1.09.19,1.1,1.1,0,0,1,.66.49Zm-5.57,4.14-1.18,1.28c-.41.44-.84.92-1.28,1.45-.75.92-1.43,1.79-2,2.61a4.6,4.6,0,0,0-.91,1.6c0,.12.11.06.33-.19s.85-1,1.85-2.31c.46-.6,1-1.24,1.65-1.94s1.08-1.28,1.45-1.69a9.56,9.56,0,0,0,1-1.19c.19-.28.24-.4.15-.37a1,1,0,0,0-.38.18l-.66.57Zm3.44,12.22c-.15.29-.44.76-.84,1.42s-.83,1.37-1.24,2-.76,1.26-1.07,1.8-.5.83-.54.89c-.06.22.1.11.49-.33a16.72,16.72,0,0,0,1.26-1.7c.5-.75,1.07-1.73,1.71-2.93a6.06,6.06,0,0,0,.84-2s-.11.08-.23.23a4.69,4.69,0,0,0-.38.57Zm0,0" transform="translate(-4.15 -3)"/><path d="M197.78,147.7a8.63,8.63,0,0,1-.47,1.19c-.25.5-.5,1-.75,1.55a42.18,42.18,0,0,1-4.53,7.08,13.59,13.59,0,0,1-4.35,3.78,3.72,3.72,0,0,1-3.39,0,4.82,4.82,0,0,1-2.4-2.82c-.17-.32-.32-.6-.44-.86s-.2-.33-.24-.33a2.58,2.58,0,0,0-.42.65c-.18.45-.4,1-.65,1.52a45.63,45.63,0,0,1-2.32,4.81,7,7,0,0,1-1.79,2.17,2.85,2.85,0,0,1-1.55.47h-.25a2.32,2.32,0,0,1-1.22-.28,2.19,2.19,0,0,1-.8-1,5.55,5.55,0,0,1-.39-1.71,4.11,4.11,0,0,1,0-.65,20,20,0,0,1,.39-3.41q.42-2.73,1.08-5.37c.25-1,.51-1.82.79-2.6a11.85,11.85,0,0,1,.77-1.93,17.73,17.73,0,0,1,1.22-2.13c.37-.62.62-.94.75-.94s.25.35.25,1a13.24,13.24,0,0,1-.25,2.32,5.65,5.65,0,0,0-.19,1.09,6,6,0,0,0-.09.84,5.17,5.17,0,0,1-.1.75,9.27,9.27,0,0,1-.14,1c-.19.91-.39,2.11-.61,3.58a26.91,26.91,0,0,0-.33,2.94,2.11,2.11,0,0,0,.05.61c0,.06.09,0,.19-.1a5.15,5.15,0,0,0,.65-1.23c.35-.72.73-1.57,1.15-2.55s.79-1.94,1.17-2.82.62-1.46.75-1.71.22-.54.34-.89a7.25,7.25,0,0,0,.28-.89c.06-.22.14-.48.24-.76a1.84,1.84,0,0,1,.28-.61,1.11,1.11,0,0,1,.37-.43,1.9,1.9,0,0,1,.66,0c.23.06.44.13.62.19l.47.14c.66.25,1,.47,1.13.66a17.86,17.86,0,0,1,.48,2.59,32,32,0,0,0,.66,3.64,5.61,5.61,0,0,0,.84,1.8c.1.12.25.29.47.51l1.38-1.37a28.52,28.52,0,0,0,3.39-4.21,47.14,47.14,0,0,0,3.26-5.61c.25-.49.53-1,.85-1.6s.56-1,.75-1.32l.71-1.14c.25-.44.44-.79.57-1.07s.29-.54.42-.76a1.05,1.05,0,0,1,.28-.32v-.05h.09c.16,0,.29.31.38.94a12.38,12.38,0,0,1,.09,1.56,5.8,5.8,0,0,1,0,.7,11.17,11.17,0,0,1-.14,1.75,7.41,7.41,0,0,1-.33,1.5ZM194.34,151c-.16.24-.55.87-1.19,1.87s-1.12,1.81-1.5,2.41a13.26,13.26,0,0,1-1.28,1.7c-.44.56-.64.91-.61,1.05s.33-.09.89-.63a7.2,7.2,0,0,0,1.38-1.73c.47-.7.95-1.47,1.45-2.31s.94-1.57,1.28-2.22c.22-.36.44-.75.66-1.19a4.21,4.21,0,0,0,.42-1.36c-.09,0-.33.31-.7.94a13.25,13.25,0,0,0-.8,1.47Zm-14.53,4.9c-.1.22-.29.69-.58,1.41l-.89,2.31-.8,2.12a8.18,8.18,0,0,0-.33,1c0,.16.11.07.33-.29a14,14,0,0,0,.94-1.73c.41-.85.86-2,1.38-3.36a8.55,8.55,0,0,0,.6-2.22l-.09-.09h-.09c-.07,0-.14.06-.24.19a4.53,4.53,0,0,0-.23.62Zm0,0" transform="translate(-4.15 -3)"/><path d="M217.06,132.14a19.45,19.45,0,0,1-.14,2,5.22,5.22,0,0,1-.42,1.27c-.16.44-.39,1-.71,1.7s-.69,1.36-1,2.08c-.5,1.06-1,2-1.46,2.92a4.53,4.53,0,0,1-.76,1.27s-.1-.05-.19-.14-.19-.21-.28-.33c-.35-.5-.39-1.66-.14-3.48a20.68,20.68,0,0,1,1.33-5.24,5.63,5.63,0,0,1,.65-1.42,18.45,18.45,0,0,1,1.28-1.37,7.85,7.85,0,0,1,1.08-1c.31-.28.52-.42.61-.42s.2.11.24.33v.42c0,.31,0,.79-.05,1.42Zm-4.28,14.16c.15,0,.25.09.28.18a2.49,2.49,0,0,1,.05.61c0,.44-.07,1.2-.19,2.27s-.34,2.19-.53,3.34c-.1.64-.21,1.25-.33,1.85s-.2,1.15-.33,1.65c-.16.75-.36,1.75-.61,3l-.75,3.39c-.2,1-.42,2-.67,2.89s-.44,1.56-.56,1.88a10.25,10.25,0,0,1-.89,1.75c-.33.5-.55.75-.68.75s-.09-.05-.18-.14a1.64,1.64,0,0,1-.24-.43,8.89,8.89,0,0,1-.56-3.29v-.72a48.91,48.91,0,0,1,1.17-7c.26-1.13.49-2.12.67-3s.38-1.54.57-2.17a17.54,17.54,0,0,1,1-2.83,23.67,23.67,0,0,1,1.42-2.45,13.42,13.42,0,0,1,.85-1.18c.18-.21.34-.32.48-.32Zm-2.71,6.78a11.28,11.28,0,0,0-.51,1.65c-.19.7-.36,1.43-.52,2.18-.25,1.1-.47,2.15-.65,3.15a13.13,13.13,0,0,0-.28,1.89.26.26,0,0,0,.14.19c0,.06.07,0,.14-.14a14.25,14.25,0,0,0,.37-1.66,26.31,26.31,0,0,1,.7-3.11c.29-1.06.54-1.91.77-2.54a10.53,10.53,0,0,1,.42-1.27,3.73,3.73,0,0,0,.24-1,.21.21,0,0,0-.24-.23c-.06,0-.15.08-.28.23l-.3.66Zm0,0" transform="translate(-4.15 -3)"/><path d="M249.75,134.88a2.07,2.07,0,0,1,1.61,1,4.89,4.89,0,0,1,.52,2.54c0,.45,0,1-.1,1.56s-.12,1.09-.19,1.47c-.18.94-.58,2.69-1.18,5.24s-1.22,5.09-1.88,7.64c-.35,1.35-.7,2.63-1.05,3.83s-.57,2.18-.79,3c-.67,2.19-1.11,3.74-1.33,4.62a21.4,21.4,0,0,0-.47,2.17,8.54,8.54,0,0,1-.47,1.74,2.24,2.24,0,0,1-.9.81,4,4,0,0,1-.47.23,1.15,1.15,0,0,1-.28.1s-.11-.07-.24-.19a2.91,2.91,0,0,1-.47-.37,8.15,8.15,0,0,0-.65-.63c0-.31,0-.78,0-1.41a9.58,9.58,0,0,1,.1-1.32,12.66,12.66,0,0,1,.28-1.27c.06-.32.17-.77.33-1.33l.42-1.56c.12-.47.25-.91.37-1.31s.21-.67.24-.8a15.4,15.4,0,0,0,.58-1.84c.28-1.07.61-2.35,1-3.83q.33-1.22.66-2.55c.22-.87.44-1.75.67-2.64.4-1.63.78-3.16,1.12-4.58s.6-2.5.75-3.15a7.9,7.9,0,0,0,.33-2.64c-.09-.25-.45,0-1.08.79s-1.11,1.61-1.65,2.46-1.11,2-1.83,3.45c-.67,1.25-1.25,2.48-1.75,3.67s-1.17,3-2.08,5.42c-.19.55-.39,1.07-.61,1.57s-.31.82-.37,1-.21.38-.35.67a6,6,0,0,0-.28.75q-.37,1-1.26,3c-.61,1.29-1.05,2.17-1.33,2.64a6.93,6.93,0,0,0-.52.81l-.84-.09a2.07,2.07,0,0,0-.72-.05.89.89,0,0,0-.52.14c-.31.16-.54.16-.7,0s-.34-.45-.47-1a6.59,6.59,0,0,1-.23-1.26c0-.42,0-1.22.14-2.41a15.14,15.14,0,0,0,0-2.54q-.06-.63-.33-.24a3.12,3.12,0,0,0-.44.75c-.22.47-.45,1-.7,1.56q-1.42,3.17-2.74,5.8a22.55,22.55,0,0,1-1.51,2.87c-.13.16-.22.24-.28.24s-.21,0-.33-.14a1.75,1.75,0,0,0-.47-.14,6.31,6.31,0,0,0-.66,0,4.88,4.88,0,0,1-.67,0c-.16,0-.25,0-.28-.09a2.68,2.68,0,0,1-.33-.89,5.24,5.24,0,0,1-.14-1.05,18.7,18.7,0,0,1,.38-2.31c.25-1.22.48-2.27.7-3.16.13-.44.33-1.22.58-2.36l.75-3.39c.15-.76.31-1.47.47-2.12s.21-1.1.28-1.38a17.34,17.34,0,0,1,.48-2.22c.22-.81.59-2.16,1.13-4a8.67,8.67,0,0,1,.65-1.8c.22-.41.39-.55.52-.42a4.39,4.39,0,0,1,0,.89c0,.53,0,1.16,0,1.89q-.09,1.89-.24,3.3c-.09.94-.28,2.5-.56,4.67-.06.59-.11,1.15-.14,1.65a3.45,3.45,0,0,0-.05.89c0,.19.08.27.14.24l.38-.66c.48-.82.91-1.5,1.28-2a18.75,18.75,0,0,1,1.27-1.5c.44-.41.75-.69.9-.81a1.76,1.76,0,0,1,.75-.14,2.38,2.38,0,0,1,1.71.65,4.31,4.31,0,0,1,.93,2c.07.26.13.48.19.68a1.45,1.45,0,0,0,.14.33c.06,0,.19-.2.38-.58a12.84,12.84,0,0,0,.67-1.46c.62-1.47,1.31-3,2.08-4.62s1.37-2.83,1.87-3.69l.67-1.26c.25-.44.42-.77.52-1a7.37,7.37,0,0,1,.47-.89c.22-.38.47-.77.75-1.18a28.44,28.44,0,0,1,1.7-2.45c.63-.85,1.14-1.51,1.56-2a9.34,9.34,0,0,1,1.74-1.52,2.86,2.86,0,0,1,1.37-.51h.33Zm-4.67,5.23a13.39,13.39,0,0,0-1.5,2.55c-.67,1.23-.94,1.84-.81,1.84s.12-.11.28-.33a8.18,8.18,0,0,1,.53-.9c.19-.35.4-.74.65-1.18s.52-.81.71-1.14a5.23,5.23,0,0,0,.47-.89c.09-.22.11-.33,0-.33s-.07,0-.14.1a2,2,0,0,0-.23.28Zm3.4,5.95c-.26,1.22-.59,2.62-1,4.19s-.85,3.27-1.45,5.19c-.26.85-.48,1.62-.67,2.31S245,158.87,245,159s0,.35,0,.38.09,0,.19-.19.2-.41.42-.94.39-1.14.62-1.8.5-1.6.75-2.45.49-1.76.71-2.64c.43-1.6.8-3.07,1.09-4.39a16.8,16.8,0,0,0,.42-2.74v-.32c0-.07-.06-.1-.09-.1a3.82,3.82,0,0,0-.24.61c-.09.38-.2.92-.33,1.61Zm-2.75,12.88c-.37,1.13-.71,2.14-1,3a12.1,12.1,0,0,0-.42,1.42.43.43,0,0,0-.05.15l.1-.1a2.26,2.26,0,0,0,.37-.76,17.66,17.66,0,0,0,.66-1.65c.54-1.35,1-2.78,1.52-4.29a10,10,0,0,0,.65-2.36h-.09c-.1,0-.25.34-.47.94s-.63,1.85-1.24,3.64Zm-17.45,2c0,.22.06.2.19,0a22.17,22.17,0,0,0,1.09-2c.25-.5.53-1,.85-1.61s.56-.93.75-1.21a5.33,5.33,0,0,0,.62-1.05c.06-.19,0-.28-.14-.28s-.36.22-.67.65-.66,1-1,1.61c-.41.76-.79,1.53-1.14,2.32a3.84,3.84,0,0,0-.52,1.65Zm0,0" transform="translate(-4.15 -3)"/><path d="M285.69,147.7a7.48,7.48,0,0,1-.47,1.19c-.25.5-.5,1-.75,1.55a42.18,42.18,0,0,1-4.53,7.08,13.59,13.59,0,0,1-4.35,3.78,3.72,3.72,0,0,1-3.39,0,4.82,4.82,0,0,1-2.4-2.82c-.17-.32-.32-.6-.44-.86s-.2-.33-.23-.33a2.22,2.22,0,0,0-.43.65c-.18.45-.4,1-.65,1.52a45.63,45.63,0,0,1-2.32,4.81,7,7,0,0,1-1.79,2.17,2.85,2.85,0,0,1-1.55.47h-.25a2.32,2.32,0,0,1-1.22-.28,2.11,2.11,0,0,1-.79-1,5.25,5.25,0,0,1-.4-1.71,4.11,4.11,0,0,1,0-.65,20,20,0,0,1,.39-3.41q.42-2.73,1.08-5.37c.25-1,.51-1.82.79-2.6a11.85,11.85,0,0,1,.77-1.93,19.2,19.2,0,0,1,1.22-2.13c.37-.62.62-.94.75-.94s.25.35.25,1a13.24,13.24,0,0,1-.25,2.32,5.65,5.65,0,0,0-.19,1.09,6,6,0,0,0-.09.84,4,4,0,0,1-.1.75,9.27,9.27,0,0,1-.14,1c-.19.91-.39,2.11-.61,3.58a26.91,26.91,0,0,0-.33,2.94,2.11,2.11,0,0,0,0,.61c0,.06.1,0,.19-.1a5.39,5.39,0,0,0,.66-1.23q.51-1.08,1.14-2.55t1.17-2.82q.56-1.33.75-1.71c.1-.25.22-.54.34-.89a7.25,7.25,0,0,0,.28-.89c.07-.22.14-.48.24-.76a1.84,1.84,0,0,1,.28-.61,1.11,1.11,0,0,1,.37-.43,1.9,1.9,0,0,1,.66,0c.23.06.44.13.62.19l.47.14c.66.25,1,.47,1.13.66a17.86,17.86,0,0,1,.48,2.59,32,32,0,0,0,.66,3.64,5.61,5.61,0,0,0,.84,1.8c.1.12.25.29.47.51l1.38-1.37a28.52,28.52,0,0,0,3.39-4.21,47.14,47.14,0,0,0,3.26-5.61c.25-.49.53-1,.85-1.6s.56-1,.75-1.32l.72-1.14c.25-.44.43-.79.56-1.07s.29-.54.42-.76a1.05,1.05,0,0,1,.28-.32v-.05h.09c.16,0,.29.31.38.94a12.38,12.38,0,0,1,.09,1.56,5.8,5.8,0,0,1,0,.7,11.17,11.17,0,0,1-.14,1.75,7.41,7.41,0,0,1-.33,1.5ZM282.25,151c-.16.24-.55.87-1.19,1.87s-1.12,1.81-1.5,2.41a13.26,13.26,0,0,1-1.28,1.7c-.44.56-.64.91-.61,1.05s.33-.09.89-.63a7.2,7.2,0,0,0,1.38-1.73c.47-.7.95-1.47,1.45-2.31s.94-1.57,1.28-2.22c.22-.36.44-.75.66-1.19a4.21,4.21,0,0,0,.42-1.36c-.09,0-.33.31-.7.94a13.25,13.25,0,0,0-.8,1.47Zm-14.53,4.9c-.09.22-.29.69-.58,1.41l-.89,2.31-.8,2.12a7.19,7.19,0,0,0-.32,1c0,.16.1.07.32-.29a14,14,0,0,0,.94-1.73c.41-.85.86-2,1.38-3.36a9.49,9.49,0,0,0,.61-2.22l-.1-.09h-.09c-.06,0-.14.06-.24.19a4.53,4.53,0,0,0-.23.62Zm0,0" transform="translate(-4.15 -3)"/><path d="M310.88,145.39a2.83,2.83,0,0,1,.32,1.14,7.63,7.63,0,0,1-.32,1.64,16.12,16.12,0,0,1-1.19,3,18.73,18.73,0,0,1-1.64,2.73,16.07,16.07,0,0,1-3.88,3.86,11,11,0,0,1-4.34,1.89,1,1,0,0,0-.66.66,11.76,11.76,0,0,0-.65,2.12,14.16,14.16,0,0,0-.38,2.17c0,.7,0,1.1.19,1.19a.21.21,0,0,0,.19,0,.44.44,0,0,0,.28-.14,3.17,3.17,0,0,1,.51-.33l.85-.48a6.62,6.62,0,0,0,1.84-1.27c.59-.54,1.38-1.36,2.36-2.45a14.28,14.28,0,0,1,1.23-1.28,4.89,4.89,0,0,1,1.08-.75c.31-.16.64-.35,1-.56s.64-.42.86-.58a2.69,2.69,0,0,1,.61-.38c.15-.06.25-.06.28,0s0,.67-.28,1.61a11.2,11.2,0,0,1-.9,2.36,6.77,6.77,0,0,1-.85,1.38c-.38.46-.93,1.09-1.65,1.87a15.63,15.63,0,0,1-2.93,2.55,8.15,8.15,0,0,1-2.88,1.23,6.84,6.84,0,0,1-1.5.33,5.57,5.57,0,0,1-1.19-.19A4,4,0,0,1,296,168a3.23,3.23,0,0,1-1-1.09,4,4,0,0,1-.38-1.89,4.89,4.89,0,0,1,.05-.66,16.22,16.22,0,0,1,.75-3.81,17,17,0,0,1,1-2.57,28.46,28.46,0,0,1,1.59-2.82c.26-.38.61-.91,1.05-1.6s.84-1.37,1.22-1.94a21.26,21.26,0,0,1,3.12-4,13.35,13.35,0,0,1,3.35-2.65,8.38,8.38,0,0,1,1.32-.56,3.48,3.48,0,0,1,1-.19h0a1.72,1.72,0,0,1,1,.29,2,2,0,0,1,.72.84Zm-2.41.81-.61.66c-.29.31-.61.65-.95,1a10.65,10.65,0,0,0-1.08,1.33,10.52,10.52,0,0,0-.95,1.36c-.25.42-.57.95-.94,1.61l-1.1,1.75c-.31.53-.57,1-.79,1.4a4.83,4.83,0,0,0-.33.68c0,.15.09.2.28.14a3.08,3.08,0,0,0,.84-.47c.48-.42,1.1-1,1.85-1.8A15.74,15.74,0,0,0,306.3,152a29.42,29.42,0,0,0,1.79-3,12.82,12.82,0,0,0,1-2.31,2.05,2.05,0,0,0,0-.61.32.32,0,0,0-.24-.25h-.05a.61.61,0,0,1-.14.11.84.84,0,0,0-.23.23ZM299,155.73c0,.19.15.14.43-.15a5.17,5.17,0,0,0,.84-1c.2-.29.48-.67.86-1.17s.69-1,1-1.43a11,11,0,0,0,1.14-1.65c.16-.25.13-.38-.09-.38s-.34.22-.72.66-.78,1-1.22,1.61q-.86,1.14-1.56,2.22a4.31,4.31,0,0,0-.71,1.32Zm0,0" transform="translate(-4.15 -3)"/><path d="M335.36,144.59c.09,0,.14.25.14.66v.14c0,.51-.11,1.71-.3,3.59-.09,1.19-.22,2.51-.38,4s-.28,2.66-.37,3.54-.27,2-.42,3.21-.33,2.33-.42,3.22c-.16,1.06-.29,1.93-.38,2.59a6.52,6.52,0,0,1-.34,1.27c-.44.91-.82,1.64-1.13,2.17s-.47.76-.56.79h-.05c-.06,0-.14-.09-.23-.28a3.41,3.41,0,0,1-.33-.79,7.92,7.92,0,0,1-.58-2.6c0-.85.1-2.39.28-4.62.13-1.14.23-2.11.3-2.92a7.69,7.69,0,0,0,0-1.33s-.15.06-.34.28a6.59,6.59,0,0,0-.66.81,34.07,34.07,0,0,1-2.45,2.83A15.12,15.12,0,0,1,325,163a4.18,4.18,0,0,1-2.59.75,2.37,2.37,0,0,1-1.89-1,3.09,3.09,0,0,1-.52-1.36v-.23a9.87,9.87,0,0,1,.24-1.89,13.46,13.46,0,0,1,1.66-4,11.22,11.22,0,0,1,2.68-3.29,10.69,10.69,0,0,1,2.92-1.75,6.28,6.28,0,0,1,2.79-.57c.47,0,.76.13.86.28s0,.3-.33.52a19.58,19.58,0,0,0-2.6,2.41,27.62,27.62,0,0,0-2.45,2.78,23.24,23.24,0,0,0-1.52,2.56c-.37.75-.5,1.17-.37,1.27s.45-.13,1-.66a32.57,32.57,0,0,0,2.41-2.5l.84-1.05,1-1.22c.59-.79,1.13-1.53,1.61-2.21a4.5,4.5,0,0,0,.7-1.24.45.45,0,0,1,.09-.23,1.83,1.83,0,0,1,.19-.24,8.11,8.11,0,0,0,.56-.84c.28-.47.59-1,.91-1.61.66-1.13,1.14-1.92,1.45-2.36s.52-.66.71-.66h.11Zm-1.71,6.13a6.72,6.72,0,0,0-.19,1.05c-.12.65-.25,1.42-.37,2.31,0,0,0,.34,0,.93s-.16,1.24-.29,1.9c-.13.82-.25,1.56-.38,2.21s-.12,1,0,1,.28-.28.47-.85.36-1.53.58-2.83a32.3,32.3,0,0,0,.47-3.92c0-1.19,0-1.81-.19-1.84Zm-8.4,2.22a9.17,9.17,0,0,0-1.27,1.47,11.29,11.29,0,0,0-1.23,2,7.43,7.43,0,0,0-.66,2.17,3.69,3.69,0,0,0,.09,1.73c.13.23.21.28.24.16s.11-.59.23-1.38a10.73,10.73,0,0,1,.28-1.37,4.74,4.74,0,0,1,.28-1,18,18,0,0,1,1-1.8,13.41,13.41,0,0,1,1-1.46,2.9,2.9,0,0,0,.37-.53q.06-.18-.09-.18a.14.14,0,0,0-.1,0l-.18.1Zm0,0" transform="translate(-4.15 -3)"/><path d="M360.82,142.94a1.77,1.77,0,0,0,.38.42.46.46,0,0,0,.32.2,1.28,1.28,0,0,1,.28.05,1,1,0,0,1,.29.19,1.11,1.11,0,0,1,.23.79,5.78,5.78,0,0,1-.19,1.32,47.49,47.49,0,0,1-1.89,5.39q-1.08,2.59-2.11,4.86a23.55,23.55,0,0,1-1.47,2.87,5.06,5.06,0,0,1-1.28,1.13,4.54,4.54,0,0,1-1.22.72c-.21,0-.39-.18-.51-.54a4.73,4.73,0,0,1-.1-1.5,7.32,7.32,0,0,1,.24-1.56c.16-.44.56-1.36,1.22-2.78a22.3,22.3,0,0,0,1-2.22,8.47,8.47,0,0,0,.37-1.08c-.06-.22-.33,0-.81.61A19.55,19.55,0,0,0,354,154c-.34.57-.68,1.14-1,1.71a8.49,8.49,0,0,0-.65,1.4c-.07.22-.19.57-.38,1s-.31.92-.47,1.36a36,36,0,0,0-1,3.73,43.9,43.9,0,0,0-.79,4.33,8.34,8.34,0,0,1-.66,2.71c-.19.31-.39.46-.61.46a.81.81,0,0,1-.44-.14,1.05,1.05,0,0,0-.47-.18,2.73,2.73,0,0,0-.7,0c-.19,0-.45,0-.8,0-.06-.18-.17-.47-.34-.86a7.31,7.31,0,0,1-.33-2.59,28.66,28.66,0,0,1,.19-2.92,67.48,67.48,0,0,1,1.52-8.92,28.17,28.17,0,0,1,.84-3,8.47,8.47,0,0,1,.95-1.84c.32-.41.53-.52.66-.33a8,8,0,0,1,.19,1.94,8,8,0,0,0,.09,1.37c0,.31.08.49.14.52s.31-.13.47-.47a12.52,12.52,0,0,1,1.33-2.17,26.15,26.15,0,0,1,1.65-2.18c.66-.85,1.49-1.84,2.5-3s1.65-1.82,2.13-2.26a5.12,5.12,0,0,1,1.17-.95l.66-.28a1.34,1.34,0,0,1,.42-.14s.11.06.25.18a2.08,2.08,0,0,1,.28.38Zm-1.05,4.81a11,11,0,0,1-.61,1.66c-.28.71-.53,1.32-.75,1.79s-.55,1.32-.9,2.18a4.61,4.61,0,0,0-.52,1.45c.06.15.16.12.28-.1a9.6,9.6,0,0,0,.61-1.22c.23-.47.49-1.06.77-1.74s.55-1.35.8-2c.4-1,.73-2,1-2.82s.28-1.24.09-1.24-.22.24-.34.72-.3.92-.43,1.36Zm-5.32,2.87a14.19,14.19,0,0,0-1.33,1.66c-.5.7-1,1.47-1.6,2.31a21.08,21.08,0,0,0-1.51,2.83c-.35.79-.64,1.55-.89,2.27a31.45,31.45,0,0,0-.75,3.22c-.33,1.56-.39,2.29-.21,2.2s.46-.55.68-1.83a21,21,0,0,1,.7-3.08,24.1,24.1,0,0,1,.94-2.45c.44-1,.79-1.72,1-2.17.5-.88,1.09-1.8,1.75-2.78a12.24,12.24,0,0,1,1.5-1.92c.13-.17.28-.37.47-.58a1.83,1.83,0,0,0,.24-.43s0,0-.05,0-.2.09-.42.28a3.1,3.1,0,0,0-.56.51Zm0,0" transform="translate(-4.15 -3)"/><path d="M94.82,119.43a94.42,94.42,0,0,0-4.44-19c-4.2-12-8.91-21.64-14.72-30.14a11.08,11.08,0,0,1-3.12,2.24.58.58,0,0,1-.41,0,.55.55,0,0,1-.29-.29l-1.28-2.83a14.71,14.71,0,0,1-1.93,1l.61,6.33a101.7,101.7,0,0,1,4.39,10.75,52.39,52.39,0,0,0,6.73-2,3,3,0,0,1,1-.18,2,2,0,0,1,1.92,1.09,1.8,1.8,0,0,1,0,1.37,2.72,2.72,0,0,1-1.45,1.44A56.92,56.92,0,0,1,75,91.66q.93,3.11,1.67,6.28a52.87,52.87,0,0,0,6.55-2,2.82,2.82,0,0,1,1-.18,2,2,0,0,1,1.92,1.09,1.78,1.78,0,0,1,0,1.36,2.63,2.63,0,0,1-1.45,1.44,55.83,55.83,0,0,1-7.17,2.53c.45,2.36.81,4.75,1.1,7.17a52,52,0,0,0,7.75-2.28,3,3,0,0,1,1-.18A2,2,0,0,1,89.3,108a1.85,1.85,0,0,1,0,1.37,2.74,2.74,0,0,1-1.46,1.44,56.4,56.4,0,0,1-8.82,3c.11,1.36.19,2.72.25,4.09,0,.82,0,1.73,0,2.68a52.32,52.32,0,0,0,9.35-1.27,2.79,2.79,0,0,1,.64-.07,2.15,2.15,0,0,1,2.14,1.38,1.72,1.72,0,0,1-.17,1.34,2.65,2.65,0,0,1-1.64,1.24A56.43,56.43,0,0,1,79.05,125c-.28,6.88.1,13.88,8,14.33l.78,0a7.12,7.12,0,0,0,5.7-2.2C96.67,133.5,95.68,126,95,121c-.07-.53-.14-1-.2-1.53" transform="translate(-4.15 -3)"/><path d="M90.3,121.38a.71.71,0,0,0,.08-.53,1.11,1.11,0,0,0-1.12-.62,2,2,0,0,0-.41,0,53.52,53.52,0,0,1-9.62,1.3c0,.4,0,.8-.07,1.21s0,.74,0,1.12a54.62,54.62,0,0,0,10.2-1.81,1.6,1.6,0,0,0,1-.72" transform="translate(-4.15 -3)"/><path d="M88.32,109a.67.67,0,0,0,0-.54,1,1,0,0,0-1-.47,2.05,2.05,0,0,0-.64.11,54.27,54.27,0,0,1-8,2.36c.08.74.15,1.5.22,2.26a54.69,54.69,0,0,0,8.49-2.87,1.6,1.6,0,0,0,.88-.85" transform="translate(-4.15 -3)"/><path d="M85.14,97.82a.67.67,0,0,0,0-.54,1,1,0,0,0-1-.48,1.77,1.77,0,0,0-.64.12A54.79,54.79,0,0,1,76.86,99c.16.71.31,1.43.45,2.15a55.51,55.51,0,0,0,7-2.46,1.6,1.6,0,0,0,.88-.85" transform="translate(-4.15 -3)"/><path d="M82.31,87.39a.67.67,0,0,0,0-.54,1,1,0,0,0-.95-.47,1.81,1.81,0,0,0-.64.12A52.23,52.23,0,0,1,74,88.56c.22.65.44,1.35.67,2.1a57.86,57.86,0,0,0,6.78-2.41,1.65,1.65,0,0,0,.88-.86" transform="translate(-4.15 -3)"/><path d="M107.48,72.16c-2.87-6-9.25-13.81-23.35-16.74a.51.51,0,0,1-.41-.47c-.12-1.31-.81-5.6-4.33-5.5a2.43,2.43,0,0,1-.76.14.56.56,0,0,1-.5-.27.57.57,0,0,1,0-.54c.31-.54,3.72-1.39,6.15-1.39a6,6,0,0,1,4.41,1.45,5.38,5.38,0,0,0-.4-4,3.92,3.92,0,0,0-3.43-1.36c-.21,0-.43,0-.66,0a.53.53,0,0,1-.24-1,21.34,21.34,0,0,1,7.15-1.58,6.17,6.17,0,0,1,4,1.16c.34-1.33.82-3.92-.08-5.54a2.56,2.56,0,0,0-1.77-1.29.54.54,0,0,1-.15-1c.14-.09,3.71-2.22,6.84-2.22a4.87,4.87,0,0,1,2.46.59C102,31,101,28.67,98.82,28.12a.53.53,0,0,1-.15-1,24.65,24.65,0,0,1,9.69-2.93,30.61,30.61,0,0,0-9-1.38c-8.76,0-21.12,3.94-30.24,22.69a.53.53,0,0,1-.7.25l-.14-.06a.53.53,0,0,1-.29-.68l4.7-12a9.81,9.81,0,0,0-2.74-.44,3.69,3.69,0,0,0-3.83,2.32c-.09.63-.18,1.11-.69,1.11-.17,0-.55-.07-.56-.73,0-1.1.76-7.84,4.31-9.19a6.14,6.14,0,0,0-3.26-1.25c-1.51,0-2.66,1.12-3.43,3.31a.52.52,0,0,1-.59.34.53.53,0,0,1-.44-.52c0-.37.07-8.37,4-10.42-1-.78-3-2.11-4.79-2.11a2.56,2.56,0,0,0-2.22,1.15.55.55,0,0,1-.56.2.52.52,0,0,1-.39-.44c0-.32-1-6.92,2.13-9.2a9.81,9.81,0,0,0-1.5-.12,4.73,4.73,0,0,0-4,1.65.55.55,0,0,1-.56.2.54.54,0,0,1-.39-.43A21,21,0,0,1,53.19,3c-6,15.87-3.81,30.07,6.58,41.37a.53.53,0,0,1,.12.5.49.49,0,0,1-.36.36,13.78,13.78,0,0,0-1.62.61.52.52,0,0,1-.68-.22c-10.58-19-23-23-31.5-23a30.33,30.33,0,0,0-12,2.55,24.72,24.72,0,0,1,10,1.84.53.53,0,0,1,.3.5.54.54,0,0,1-.34.48c-2.12.78-2.82,3.23-3.06,4.86A5.35,5.35,0,0,1,23.81,32,17.14,17.14,0,0,1,30,33.46a.53.53,0,0,1,.3.5.55.55,0,0,1-.35.48,2.55,2.55,0,0,0-1.62,1.48c-.71,1.7.05,4.22.53,5.51q1.63-1.66,5.27-1.67a23.6,23.6,0,0,1,5.85.86.53.53,0,0,1,.38.57.55.55,0,0,1-.51.47c-2,.08-3.26.66-3.87,1.7-.75,1.28-.37,3,0,4.12,1-1.32,3-2,5.82-2a19.9,19.9,0,0,1,3.05.25c1.4.24,1.72.4,1.72.85a.55.55,0,0,1-.63.55,4.74,4.74,0,0,1-.65,0,3.24,3.24,0,0,0-2.36,1.15,7.49,7.49,0,0,0-1.33,4.61l9.1-.76a.51.51,0,0,1,.47.21.52.52,0,0,1,.07.51,12.91,12.91,0,0,0-.61,2,.56.56,0,0,1-.56.42C48,55,46,54.92,44,54.92c-16.14,0-28.19,5.38-34.86,15.56a33.89,33.89,0,0,0-5,13.12A27.68,27.68,0,0,1,12,75.23a.55.55,0,0,1,.59,0,.53.53,0,0,1,.2.55c-.56,2.53,1.4,4.72,2.8,5.93-.43-4.27,5.91-8.32,6.22-8.51a.51.51,0,0,1,.59,0,.55.55,0,0,1,.21.56A2.92,2.92,0,0,0,23,76.25c1.19,1.74,4.11,2.56,5.58,2.88-1.16-4.75,5.63-10.62,5.93-10.88a.53.53,0,0,1,.8.68c-1.11,1.89-1.37,3.47-.76,4.69.77,1.54,2.74,2.25,4,2.56a6.37,6.37,0,0,1,.61-4.93c1.15-2.42,3.85-5.61,4.54-5.61a.53.53,0,0,1,.49.31c.17.35-.05.64-.53,1.19-.93,1.7-.6,3.44,1,5.16a.54.54,0,0,1,0,.72C35.34,83.1,34.36,93.23,35.17,100a34,34,0,0,0,2.9,10.16A27.59,27.59,0,0,1,40,98.77a.51.51,0,0,1,.49-.31.52.52,0,0,1,.48.34c.94,2.43,3.8,3.16,5.62,3.37-2.73-3.3.29-10.19.44-10.53a.53.53,0,0,1,1,0c.52,1.42,1.66,2.1,3.47,2.1a12.9,12.9,0,0,0,4.48-1c-3.61-3.29-1.23-11.94-1.12-12.33a.53.53,0,0,1,1,.12c.18,3.17,1.5,4.78,3.93,4.78a8.51,8.51,0,0,0,2.77-.55C59.43,82.6,60.19,76.32,60.4,75c.24-1.63.42-1.9.87-1.9a.56.56,0,0,1,.41.19c.17.19.18.41.09,1.18.36,3.84,5,4.1,6.57,4.07l-.8-8.34a.52.52,0,0,1,.33-.54,12.3,12.3,0,0,0,2.61-1.38.56.56,0,0,1,.45-.07.54.54,0,0,1,.34.29l1.3,2.89A7.52,7.52,0,0,0,76,68a3.29,3.29,0,0,0-.15-2.62c-.39-.53-.58-.81-.41-1.14a.55.55,0,0,1,.49-.3c.68,0,2.79,3,3.65,5A6.08,6.08,0,0,1,80,73.67c1.13-.21,2.85-.73,3.6-2,.62-1,.48-2.46-.4-4.21a.53.53,0,0,1,.85-.61c.26.25,5.94,5.89,4.69,10.1,1.36-.2,3.94-.76,5.08-2.21a2.54,2.54,0,0,0,.51-2.13.53.53,0,0,1,.84-.52c.26.19,5.61,4.15,5.1,8,1.31-1,3.09-2.81,2.75-5a.53.53,0,0,1,.25-.52.5.5,0,0,1,.58,0,24.48,24.48,0,0,1,6.44,7.79,30.35,30.35,0,0,0-2.79-10.13" transform="translate(-4.15 -3)"/></svg>