<svg id="Layer_1" data-name="Layer 1" xmlns="http://www.w3.org/2000/svg" viewBox="0 0 725.17 423.44"><rect width="711.48" height="423.44" style="fill:#fff"/><path d="M383.74,40.85q-7.5-1.08-13.3,11.35l1.64,42.69s-2.45-8.5-7.36-25.5c-14.61,1.83-55.69,4.33-59.18-16-2.63-15.25-9.11-39-27.54-26.51q-3.79,2.58-7.34,5.18L178.1,35.59l77.25,9.06A118.29,118.29,0,0,0,233.57,70.7l-64,2.37,59.71,5.86c-11.14,26.33,43.88,54.89,63.22,63q45.12,18.84,69.29,45.25l16.91,2.24L365.11,191l.18.2C399,231.35,460.15,229.33,505,211.78c26.32-18.95-39.37-22.18-44-22.86l22-.54c-3.93-1.24-7-1.94-7.86-2.37-73.41-36.54-71.56-67.18-74.21-98.45C398.39,57.91,397.72,43.19,383.74,40.85Z" style="fill:#0b81af;fill-rule:evenodd"/><path d="M195.79,120.16a180.18,180.18,0,0,1,20-20.1c11,26,49.76,46.67,70.93,55.51,16.88,7,34.17,16,48.93,27.64q-16.77-2.06-24.68-5.4c-33.23-14.12-91.95-12.9-128.25-12.69q34.5-4.26,51.82-3.64c7,.24,4.41-7.35.31-10.93-3.95-3.42-17.8,4.9-17.07-10.48.47-10-16.18-12.22-25.36-12.09-16.79.21-33.6.08-50.4,0l53.74-7.87ZM346.72,192.9c1.41,1.39,2.77,2.8,4.1,4.25l1.47,1.6,1.68,2c37.9,44.84,104.43,44.81,155.34,25.25Q490,243.06,475.42,241.64c-6.76-.64-4.61-5.71-13.76,1.44q-11.28,7.44-22.07,1.76c-8-4.23-2.8-4.23-12-.8a61.43,61.43,0,0,1-17.38,3.77c-62.87,4.36-151.82-2.62-218.87-3.87l175.1-18.74A230.48,230.48,0,0,1,348,204.31l-78.71-8Z" style="fill:#f7941d;fill-rule:evenodd"/><path d="M41,346.74c20,0,29.7-10,29.7-21.68,0-25.7-40.7-16.79-40.7-29.7,0-4.42,3.7-8,13.3-8a39.54,39.54,0,0,1,19.4,5.5l5-12.3c-6.5-4.1-15.5-6.2-24.3-6.2-19.9,0-29.5,9.9-29.5,21.81,0,26,40.7,17,40.7,30.11,0,4.28-3.9,7.48-13.5,7.48A41.24,41.24,0,0,1,18,326.45l-5.5,12.19C18.66,343.44,29.86,346.74,41,346.74Z" style="fill:#070c21;fill-rule:evenodd"/><polygon points="169.29 275.54 169.29 303.14 137.49 303.14 137.49 275.54 121.29 275.54 121.29 345.54 137.49 345.54 137.49 316.84 169.29 316.84 169.29 345.54 185.49 345.54 185.49 275.54 169.29 275.54" style="fill:#070c21;fill-rule:evenodd"/><path d="M275.53,346.74c22,0,38.3-15.3,38.3-36.2s-16.3-36.2-38.3-36.2-38.31,15.4-38.31,36.2,16.21,36.2,38.31,36.2Zm0-13.8c-12.5,0-21.9-9.1-21.9-22.4s9.4-22.4,21.9-22.4,21.89,9.1,21.89,22.4S288,332.94,275.53,332.94Z" style="fill:#070c21;fill-rule:evenodd"/><polygon points="381.66 332.54 381.66 316.34 414.16 316.34 414.16 303.74 381.66 303.74 381.66 288.54 418.46 288.54 418.46 275.54 365.56 275.54 365.56 345.54 419.75 345.54 419.75 332.54 381.66 332.54" style="fill:#070c21;fill-rule:evenodd"/><path d="M495.19,346.74c20,0,29.7-10,29.7-21.68,0-25.7-40.7-16.79-40.7-29.7,0-4.42,3.7-8,13.3-8a39.54,39.54,0,0,1,19.4,5.5l5-12.3c-6.5-4.1-15.5-6.2-24.3-6.2-19.9,0-29.5,9.9-29.5,21.81,0,26,40.7,17,40.7,30.11,0,4.28-3.9,7.48-13.5,7.48a41.24,41.24,0,0,1-23.1-7.29l-5.5,12.19C472.89,343.44,484.09,346.74,495.19,346.74Z" style="fill:#070c21;fill-rule:evenodd"/><polyline points="590.5 305.08 590.5 291.28 590.5 277.48 582.4 277.48 574.3 277.48 574.3 312.48 574.3 347.48 582.4 347.48 590.5 347.48 590.5 333.13 590.5 318.78" style="fill:#070c21;fill-rule:evenodd"/><polygon points="658.67 334.48 658.67 318.28 691.17 318.28 691.17 305.68 658.67 305.68 658.67 290.48 695.47 290.48 695.47 277.48 642.57 277.48 642.57 347.48 696.77 347.48 696.77 334.48 658.67 334.48" style="fill:#070c21;fill-rule:evenodd"/><text transform="translate(14.15 414.13)" style="font-size:45px;fill:#f7941d;font-family:AgencyFB-Bold, Agency FB;font-weight:700;letter-spacing:0.6199978298611111em">BRAND NEW SHOES</text><line x1="12.46" y1="363.13" x2="696.77" y2="363.13" style="fill:#0b81af;stroke:#0e9dc9;stroke-width:4px"/></svg>