<svg width="516" height="362" viewBox="0 0 516 362" fill="none" xmlns="http://www.w3.org/2000/svg">
<path d="M267.24 362C264.77 358.71 265.12 358.6 265.94 353.66C266.53 350.08 267.45 346.66 268.27 343.11C269.04 339.82 270.05 336.59 271.04 333.05H265.25C267.33 331.67 268.35 330.52 269.53 330.32C271.73 329.94 272.32 328.18 272.89 326.72C273.56 324.99 274.69 323.24 274.89 321.61C275.28 318.75 277.81 317.5 278.5 315.01C280.2 319.37 276.5 322.51 276.03 326.33C279.55 327.16 279.55 327.16 283.8 322.9C285.52 327.36 281.91 330.28 280.61 335.03C280.31 332.29 280.13 330.67 279.93 328.83C278.906 329.325 277.829 329.7 276.72 329.95C275.14 330.11 274.59 330.95 274.2 332.35C272.2 339.09 270.02 345.74 269.2 352.76C269.04 354.14 268.5 355.47 268.26 356.84C268.115 357.471 268.207 358.133 268.52 358.7C269 359.32 270.79 358.86 270.16 360.39C269.88 361.08 268.9 361.47 268.23 362H267.24Z" fill="black"/>
<path d="M355.16 362C352.33 359.23 352.52 355.55 353.4 352.43C355.1 346.43 356.3 340.43 358.14 334.43C358.188 334.008 358.188 333.582 358.14 333.16L354.33 332.84C354.43 332.5 354.44 332.15 354.59 332.05C356.3 330.97 358.46 330.26 359.59 328.77C360.72 327.28 360.74 324.96 361.51 323.12C362.581 320.565 363.8 318.074 365.16 315.66C365.61 314.85 366.67 314.37 368.35 313.02C366.48 318.31 365.03 322.43 363.5 326.77C364.534 327.064 365.625 327.104 366.678 326.886C367.731 326.669 368.717 326.2 369.55 325.52C368.91 326.96 368.77 327.73 368.32 328.18C367.87 328.63 366.76 328.75 366.32 329.31C365.32 330.65 363.23 329.21 362.5 331.03C361.77 332.85 360.5 334.62 360.18 336.53C359.813 339.319 359.118 342.054 358.11 344.68C357.04 347.28 357.31 350.2 356.19 352.87C355.6 354.28 356.07 356.15 356.1 357.81C356.1 358.11 356.18 358.63 356.34 358.68C361.21 360.17 355.67 360.85 356.08 361.97L355.16 362Z" fill="black"/>
<path d="M0.500244 353L3.81024 355.27C6.21024 352.4 9.62026 350.5 10.6703 345.97C8.67026 346.97 7.04025 347.86 5.35025 348.62C3.12025 349.62 1.42023 348.56 1.55023 346.15C1.51212 344.898 1.86136 343.666 2.55023 342.62C5.71023 338.96 8.27025 334.71 12.4102 331.96C13.8702 332.41 14.7402 333.29 14.4602 334.84C14.0602 337.03 13.8702 339.35 11.1202 341.72L12.3802 336.38C9.35962 338.537 7.00113 341.495 5.57025 344.92C7.06025 344.31 8.39023 343.7 9.77023 343.23C11.9202 342.51 13.2603 343.4 13.4803 345.56C13.6042 346.672 13.4742 347.798 13.1001 348.853C12.726 349.908 12.1174 350.864 11.3203 351.65C10.1703 352.85 8.92024 353.96 7.81024 355.19C6.07024 357.14 4.27024 358.02 1.96024 356.03C1.67024 355.79 0.960234 356.03 0.490234 356.03L0.500244 353Z" fill="black"/>
<path d="M220.73 321.67C222.28 325.1 220.31 327.87 219.93 330.77C219.61 333.21 218.24 335.47 218.25 338.06C218.098 338.812 217.867 339.547 217.56 340.25C216.48 344.67 214.97 349.03 215.4 354.47C216.87 352.79 217.97 351.79 218.74 350.16C220.225 346.711 222.838 343.869 226.15 342.1C227.8 341.28 227.97 340.34 228.36 338.82C229.81 333.15 230.64 327.25 233.97 321.71C234.173 323.599 234.062 325.508 233.64 327.36C233.03 330.94 232.08 334.36 231.24 337.9C230.4 341.44 229.7 344.9 228.6 348.28C228.07 349.92 228.3 351.81 228.13 354.63C229.56 353.02 230.48 352.11 231.26 351.09C231.983 350.077 232.651 349.026 233.26 347.94C234.833 344.921 237.514 342.627 240.74 341.54C238.37 345.27 236.48 348.18 234.65 351.13C233.65 352.71 232.9 354.44 231.77 355.91C230.93 357.02 229.99 358.42 228.18 357.99C227.369 357.668 226.668 357.12 226.159 356.411C225.65 355.702 225.356 354.861 225.31 353.99C225.46 352.11 224.64 350.14 226.18 348.33C226.73 347.7 226.27 346.2 226.27 343.9C223.16 348.73 220.73 352.52 218.27 356.31C217.66 357.31 217.06 358.25 215.63 358.04C214.46 357.88 212.24 356.11 212.34 354.93C212.57 352.54 211.34 349.99 213.06 347.75C213.34 341.58 216.39 336.08 217.39 330.05C217.86 327.23 219.51 324.63 220.73 321.67Z" fill="black"/>
<path d="M35.3404 337V346.29C36.5804 344.87 37.2404 343.57 38.2704 343.09C39.9504 342.31 40.8604 343.98 41.9104 344.96C45.4704 338.83 47.4604 331.69 53.0504 326.96C53.3939 326.979 53.7302 327.066 54.0394 327.217C54.3487 327.368 54.6246 327.579 54.851 327.838C55.0774 328.097 55.2498 328.399 55.3579 328.725C55.466 329.052 55.5076 329.397 55.4804 329.74C55.5693 333.255 55.0413 336.758 53.9205 340.09C52.4505 345.09 51.3204 350.29 49.4904 355.24C49.2848 356.266 49.2176 357.316 49.2904 358.36C47.3704 357.57 46.2904 357.36 46.9404 354.87C48.5404 348.7 50.9404 342.71 51.5204 336.26C51.6704 334.61 53.0704 333.1 52.1004 331.03C49.0815 335.425 46.7982 340.281 45.3404 345.41C44.5904 347.85 42.7704 349.93 42.2404 352.63C41.9704 354.01 40.3504 354.27 38.5804 353.9V348.28L37.8804 348.1C36.7004 350.61 35.6104 353.17 34.3004 355.61C33.8904 356.36 33.0504 357.61 31.9904 356.92C31.1004 356.34 29.6004 355.65 31.0404 353.81C32.2904 352.22 31.4604 349.93 32.3004 347.87C33.6904 344.47 34.0304 340.64 34.8104 336.99L35.3404 337Z" fill="black"/>
<path d="M60.4802 354.25V348C58.2702 349.17 58.0502 351.08 57.3502 352.87C56.6502 354.66 56.3002 357.55 52.7302 356.87C51.6102 353.38 53.9202 350.35 54.4802 347.08C55.089 343.702 55.8971 340.363 56.9002 337.08C57.5002 339.7 58.0802 342.31 56.1002 345.51C59.2002 344.29 61.4302 340.67 63.7702 345.01C67.4902 338.81 69.4202 331.68 75.0702 326.9C76.8402 327.29 77.3802 328.31 77.4702 330.04C77.7602 335.88 75.4102 341.17 74.1602 346.68C73.3002 350.44 72.0002 354.11 70.9002 357.8C68.6702 356.88 68.9002 356.91 69.2502 354.59C70.1602 348.22 73.3402 342.37 73.4302 335.83C74.8602 334.54 74.3102 332.83 74.5302 330.47C73.4202 332 72.7002 332.82 72.1802 333.74C71.5102 334.94 70.9702 336.23 70.4102 337.49C69.8502 338.75 69.4802 339.77 68.9902 340.9C68.5002 342.03 67.9402 343.13 67.4402 344.25C66.0702 347.35 64.7802 350.48 63.2802 353.51C63.0502 354 61.8202 353.94 60.4802 354.25Z" fill="black"/>
<path d="M340.81 348.07C342.59 345.15 344.39 342.24 346.16 339.3C347.93 336.36 348.16 332.81 351.83 330.41C351.97 332.15 352.48 333.52 352.08 334.53C350.74 338.04 350.77 341.83 349.47 345.39C348.54 347.95 348.39 350.8 347.47 353.51C347.239 354.277 346.836 354.981 346.292 355.568C345.748 356.156 345.077 356.611 344.33 356.9C343.57 353.06 346.63 349.76 345.95 345.65C344.52 347.5 342.62 348.9 342.4 350.53C342.14 352.39 340.79 351.86 340.08 352.47C339.53 352.94 337.86 353.06 337.55 352.67C336.87 351.78 336.15 350.28 336.46 349.38C337.62 346.06 338.38 342.58 340.12 339.44C340.51 338.74 340.44 337.69 341.47 338.09C341.9 338.26 342.27 339.45 342.15 340.09C341.64 342.64 340.92 345.09 340.29 347.66L340.81 348.07Z" fill="black"/>
<path d="M22.4597 356.82C22.5097 353.09 24.9397 349.89 24.3797 346.06C21.5697 348.63 20.7096 353.2 15.7696 353.06C14.5796 347.9 16.7696 343.45 18.5196 338.95C18.6896 338.54 19.4097 338.34 19.8697 338.04C20.0797 338.43 20.4797 338.85 20.4497 339.22C20.2724 341.716 19.6528 344.161 18.6197 346.44C18.4497 346.8 18.6197 347.32 18.6197 348.52C20.8828 345.624 22.8556 342.512 24.5097 339.23C26.1097 336.37 26.5997 332.76 30.3197 330.43C30.2197 333.18 31.3897 335.35 29.6397 337.43C29.7697 341.13 27.9297 344.43 27.5597 348.02C27.3597 349.93 26.2797 351.53 26.3197 353.59C26.3197 354.94 24.7997 356.45 22.4597 356.82Z" fill="black"/>
<path d="M377.14 349C380.52 342 384.42 336.91 390.93 333.47C391.26 336.72 391.17 339.13 390.16 341.62C388.22 346.42 386.53 351.32 384.65 356.42C383.3 355.42 382.01 355.59 382.94 353.29C383.94 350.74 385.11 348.2 386.06 345.6C386.8 343.6 387.47 341.6 388.21 339.41C384.36 341.78 382.59 343.67 380.14 348.29C378.41 351.56 376.82 354.9 375.14 358.18C374.91 358.63 374.36 358.93 373.38 359.83C372.59 352.41 375.03 346.36 376.2 340.11L377.2 340.18L377.14 349Z" fill="black"/>
<path d="M312 333.8C312.251 336.2 312.013 338.625 311.3 340.93C309.62 346.05 307.36 350.93 305.61 356.93C304.92 355.28 302.67 356.25 303.95 353.37C305.383 350.486 306.538 347.472 307.4 344.37C307.984 342.454 308.688 340.577 309.51 338.75C301.76 344.1 299.51 352.42 295.05 359.75C294.538 358.896 294.205 357.947 294.071 356.96C293.937 355.973 294.005 354.97 294.27 354.01C295.02 349.218 296.294 344.523 298.07 340.01V348.32C300.2 345.16 301.73 342.32 303.76 340.02C306 337.51 308.15 334.79 312 333.8Z" fill="black"/>
<path d="M408.62 349C409.903 346.461 411.038 343.85 412.02 341.18C412.61 339.26 413.75 340.31 414.71 340.18C415.48 342.84 416.26 345.49 417.16 348.57C421.84 343.72 424.3 338.14 427.58 332.78C428.026 333.954 428.184 335.217 428.041 336.465C427.899 337.712 427.459 338.907 426.76 339.95C425.14 342.8 423.76 345.83 421.46 348.2C420.59 349.08 419.95 350.2 418.27 350.2C416.59 350.2 415 350 414 348.39C413.86 348.17 413.46 348.12 412.77 347.81C411.45 350.53 410.06 353.34 407.43 355.04C405.43 354.7 405.17 353.41 405.13 351.78C405.02 346.94 406.86 342.61 408.39 338.03C409.27 340.69 409.68 342.2 408.73 343.79C407.59 345.61 408.5 347.2 408.62 349Z" fill="black"/>
<path d="M251.37 347.43C251 348.21 250.67 349 250.25 349.75C248.573 352.696 246.084 355.098 243.08 356.67C242.618 357.008 242.043 357.155 241.475 357.08C240.908 357.006 240.39 356.716 240.03 356.27C239.18 355.27 237.8 354.63 238.28 353C238.94 350.79 239.28 348.3 240.47 346.45C242.93 342.72 245.05 338.63 248.9 336.02C249.491 335.726 250.116 335.508 250.76 335.37L252.76 337.93C252.023 341.247 250.143 344.199 247.45 346.27C246.45 347.09 245.81 348.27 244.16 348.11C243.56 348.11 242.52 349.18 242.3 349.94C242.04 350.87 242.18 351.85 241.25 352.55C241.11 352.65 241.32 353.55 241.61 353.8C241.806 353.91 242.026 353.968 242.25 353.968C242.475 353.968 242.695 353.91 242.89 353.8C244.24 352.57 245.44 351.16 246.82 349.96C248.2 348.76 249.44 347.96 250.76 347.01L251.37 347.43Z" fill="black"/>
<path d="M87 335.12L89.08 337.21C88.5 341.37 85.93 344.21 82.97 346.92C82.6 347.25 82.21 347.97 81.92 347.92C78.55 347.39 78.59 350.16 77.82 352.1C77.6916 352.654 77.6445 353.223 77.68 353.79C78.25 353.7 78.97 353.79 79.35 353.47C80.49 352.47 81.44 351.31 82.57 350.34C83.9948 349.034 85.6586 348.015 87.47 347.34C87.1 348.1 86.76 348.87 86.37 349.62C84.7585 352.616 82.2805 355.055 79.26 356.62C78.8111 356.976 78.242 357.144 77.6717 357.09C77.1014 357.036 76.5741 356.764 76.2 356.33C75.2 355.26 73.87 354.33 74.39 352.58C76.1 346.67 79.81 340.32 84.22 336.69C85.1029 336.093 86.0325 335.568 87 335.12V335.12Z" fill="black"/>
<path d="M88.6099 357.86C87.7699 352.39 89.1099 347.3 90.4399 342.21C90.5699 341.75 91.1399 341.4 91.4999 341L92.7499 342.69C94.7999 340.14 96.8299 337.44 99.0699 334.93C99.6899 334.24 100.95 334.13 102.41 333.55C102.47 340.41 99.7799 345.38 95.2499 349.7C95.5899 347.91 95.9399 346.13 96.2999 344.25C94.1999 344.65 93.9699 346.62 93.5099 347.96C92.7999 350.02 92.7999 352.32 92.3799 354.49C92.2399 355.22 91.4999 355.87 91.4599 356.58C91.2899 359 89.7399 357.75 88.6099 357.86Z" fill="black"/>
<path d="M156.81 347.69C160.37 348.31 164.06 347.33 166.54 351C163.95 351 161.67 351 159.39 351C157.957 350.935 156.526 351.179 155.196 351.716C153.866 352.252 152.666 353.069 151.68 354.11C150.496 355.175 149.225 356.139 147.88 356.99C146.88 355.73 147.2 354.72 148.21 353.61C150.85 350.74 153.48 347.86 155.96 344.84C157.96 342.4 159.77 339.79 161.61 337.22C162.83 335.52 162.61 334.41 160.71 331.78L152.48 339.08C152.63 338.25 152.48 337.37 152.89 337.08C154.96 335.28 156.38 332.82 159.1 331.63C160.092 331.125 161.22 330.95 162.32 331.13C163.09 331.3 164.19 332.25 164.25 332.92C164.44 335.29 164.73 337.78 163.03 339.85C161.5 341.72 159.96 343.57 158.45 345.44C158 346 157.56 346.65 156.81 347.69Z" fill="black"/>
<path d="M129.86 331C131.92 334.09 131.7 336.61 129.73 339.2C127.62 341.96 125.73 344.92 123.73 347.87C126.67 348.5 130.68 346.87 133.41 350.74C130.81 351.25 128.29 350.94 125.8 350.99C122.18 351.06 121.08 351.64 117.98 354.84C117.017 355.664 115.967 356.381 114.85 356.98L113.33 355.4C117.65 350.46 122.07 345.55 126.33 340.49C127.611 338.92 128.625 337.15 129.33 335.25C129.64 334.44 128.92 333.25 128.62 332L123.3 334.4C125.91 331 125.91 331 129.86 331Z" fill="black"/>
<path d="M143.65 332.93C144.737 333.633 145.576 334.661 146.048 335.866C146.52 337.072 146.601 338.396 146.28 339.65C145.36 343.54 143.87 347.3 142.74 351.15C142.15 353.15 140.55 354.35 139.15 355.64C138.02 356.7 135.54 355.64 135.39 354.08C134.905 348.172 135.937 342.237 138.39 336.84C139.36 334.59 141.56 333.9 143.65 332.93ZM137.07 352.53L138 353.04C140.62 349.56 143 346.12 143.52 341.42C143.75 339.22 144.15 337.51 142.32 335.42C140.67 337.77 139.26 339.81 138.73 342.17C138 345.6 137.61 349.09 137.07 352.53V352.53Z" fill="black"/>
<path d="M204.9 338H209.47C209.624 338.018 209.775 338.055 209.92 338.11C210.637 339.635 211.045 341.288 211.118 342.972C211.191 344.656 210.929 346.338 210.346 347.919C209.764 349.501 208.873 350.952 207.725 352.186C206.577 353.42 205.195 354.414 203.66 355.11C200.66 356.58 199.25 355.92 199.37 352.86C199.46 350.48 199.04 348.17 199.89 345.66C200.785 342.676 202.525 340.016 204.9 338V338ZM207.83 340C205.08 341.4 204.93 341.34 203.7 344.14C202.47 346.94 200.11 349.51 201.7 352.95C207.46 350.07 208.89 347 207.83 340V340Z" fill="black"/>
<path d="M335.51 343.35C333.78 347.16 333.39 351.77 328.88 354.01C328.453 354.24 328.075 354.552 327.77 354.93C327.603 355.21 327.379 355.452 327.114 355.642C326.848 355.832 326.547 355.964 326.228 356.032C325.908 356.1 325.579 356.101 325.259 356.035C324.94 355.969 324.637 355.838 324.37 355.65C322.37 354.4 321.62 352.98 322.59 351.26C323.049 350.417 323.247 349.456 323.16 348.5C323.05 344.7 324.79 341.79 327.41 339.28C327.886 338.787 328.466 338.407 329.107 338.167C329.749 337.928 330.437 337.835 331.119 337.897C331.801 337.958 332.461 338.172 333.049 338.522C333.638 338.872 334.141 339.35 334.52 339.92C335.1 340.78 335.14 342 335.51 343.35ZM330.77 340.09C328.07 342.02 326.65 344.7 325.69 347.87C325.05 350 325.32 351.87 325.24 354.51C327.72 351.8 330.24 350.03 331.24 346.94C331.61 346.1 331.927 345.239 332.19 344.36C332.353 343.386 332.319 342.39 332.09 341.43C331.89 340.88 331.16 340.48 330.77 340.09Z" fill="black"/>
<path d="M396.29 338C397.902 337.877 399.523 337.904 401.13 338.08C401.567 338.219 401.967 338.456 402.298 338.773C402.629 339.09 402.883 339.479 403.04 339.91C404.41 345.78 400.8 352.78 395.22 355.39C392.57 356.64 391.32 355.87 391.1 353.03C390.86 349.78 392.77 346.79 392.1 343.51L396.29 338ZM400.03 340.11C396.81 340.9 395.73 343.21 394.83 345.76C394 348.12 392.37 350.34 393.65 353.31C399.65 350.64 400.46 345.82 400 340.11H400.03Z" fill="black"/>
<path d="M284 356C281.76 354.43 280 352.71 282 349.69C282.231 349.269 282.315 348.784 282.24 348.31C281.75 344.52 283.59 341.88 286.24 339.42C286.744 338.901 287.357 338.5 288.035 338.248C288.713 337.995 289.439 337.897 290.16 337.96C292.57 338.08 293.16 338.67 293.28 341.22C293.405 342.714 293.405 344.216 293.28 345.71C293.09 347.07 292.87 348.71 292.03 349.63C289.65 352.14 287.56 355 284 356ZM283.08 353C287.2 353.09 288.75 350.39 289.68 347.81C290.54 345.43 293.05 342.66 289.5 339.81C288.08 341.69 286.63 343.53 285.25 345.42C283.73 347.57 284.89 350.46 283.1 353H283.08Z" fill="black"/>
<path d="M194.17 336.63C196.59 339.13 196.59 339.13 194.84 342.97L192.6 340.88C192.02 344.88 187.33 347.1 188.6 352.02C191.95 349.5 194.08 345.71 198.29 343.94C198.318 344.731 198.179 345.519 197.883 346.253C197.587 346.987 197.139 347.65 196.57 348.2C194.72 350.32 192.57 352.2 190.65 354.26C189.52 355.48 188.11 355.15 186.98 354.89C185.98 354.67 185.39 353.62 185.3 352.23C185.01 347.94 187.3 344.71 189.48 341.48C190.61 339.73 192.4 338.4 194.17 336.63Z" fill="black"/>
<path d="M262.05 336.53V342.13C261.05 341.78 260.05 341.06 259.58 341.33C258.88 341.75 258.58 342.83 258.11 343.65C256.73 346.22 255.37 348.81 253.59 352.16C255.04 351.77 255.87 351.79 256.3 351.38C258.49 349.38 260.55 347.16 262.7 345.07C263.547 344.405 264.436 343.794 265.36 343.24C263.36 348.69 260.57 352.12 256.31 354.52C255.8 354.925 255.151 355.111 254.504 355.037C253.857 354.964 253.266 354.638 252.86 354.13C251.79 353.07 250.81 352.13 251.38 350.35C252.38 347.42 255.5 341.35 257.8 339.05C258.83 338 260.37 337.5 262.05 336.53Z" fill="black"/>
<path d="M169.58 355.86C167.58 353.71 168.1 351.37 168.83 349.02C168.92 348.73 169.35 348.46 169.31 348.24C168.85 346.08 169.98 344.24 170.31 342.18C170.45 341.37 170.67 340.27 170.31 339.74C168 336.6 170.41 334.74 172.11 332.8C172.899 331.955 173.875 331.308 174.96 330.91C174.17 333.6 174.15 336.29 173.57 338.91C172.94 341.79 172.76 344.91 171.89 347.72C171.02 350.53 172.5 353.67 169.58 355.86Z" fill="black"/>
<path d="M280.15 337.63C280.59 344.69 278.55 350.79 276.76 356.93C276.76 357.03 276.15 356.98 275.83 357C274.68 351.85 276.16 344.92 280.15 337.63Z" fill="black"/>
<path d="M142.86 334.5C139.97 334.91 139.22 337.62 138.51 339.5C137.07 343.5 135.96 347.62 136.4 351.95C136.58 352.854 136.858 353.736 137.23 354.58C139.78 354.15 140.36 351.78 141.85 350.44C142.12 350.2 145.44 339.79 145.34 339.44C144.89 337.92 144.34 336.44 143.86 334.93" stroke="black" stroke-width="2" stroke-linecap="round" stroke-linejoin="round"/>
<path d="M284.72 354.5C289.56 351.96 292.35 348.13 292.2 342.5C292.149 341.81 291.98 341.133 291.7 340.5C291.627 340.192 291.476 339.908 291.263 339.674C291.049 339.44 290.779 339.265 290.479 339.165C290.178 339.065 289.857 339.043 289.546 339.102C289.235 339.16 288.944 339.297 288.7 339.5C285.38 341.38 283.83 344.4 283.22 348.01C283.02 349.17 283.22 350.53 282.65 351.47C281.45 353.55 283.03 353.86 284.21 354.47" stroke="black" stroke-width="2" stroke-linecap="round" stroke-linejoin="round"/>
<path d="M220.79 322.5C219.62 326.67 218.24 330.79 217.36 335.01C216.68 338.24 215.36 341.33 214.94 344.52C214.56 347.34 213.24 350.01 213.71 353.01C213.724 353.706 213.958 354.38 214.379 354.935C214.799 355.49 215.384 355.898 216.05 356.1C217.6 354.1 219.54 352.23 220.69 349.95C222.045 347.551 223.762 345.376 225.78 343.5C228.24 344.5 228.83 342.5 229.22 340.99C230.85 334.85 232.22 328.67 233.77 322.5" stroke="black" stroke-width="2" stroke-linecap="round" stroke-linejoin="round"/>
<path d="M80.9198 345.5C76.7098 346.3 77.4498 350.41 75.9998 353.04C75.7998 353.41 76.4798 354.43 76.9498 354.98C77.0931 355.172 77.2794 355.329 77.4938 355.436C77.7082 355.544 77.9448 355.6 78.1848 355.6C78.4247 355.6 78.6613 355.544 78.8757 355.436C79.0901 355.329 79.2764 355.172 79.4198 354.98C81.9298 352.49 84.4198 349.98 86.9198 347.48" stroke="black" stroke-width="2" stroke-linecap="round" stroke-linejoin="round"/>
<path d="M244.76 345.5C240.55 346.3 241.29 350.41 239.84 353.04C239.64 353.41 240.32 354.43 240.79 354.98C240.933 355.172 241.119 355.329 241.334 355.436C241.548 355.544 241.785 355.6 242.025 355.6C242.265 355.6 242.501 355.544 242.716 355.436C242.93 355.329 243.116 355.172 243.26 354.98C245.77 352.49 248.26 349.98 250.76 347.48" stroke="black" stroke-width="2" stroke-linecap="round" stroke-linejoin="round"/>
<path d="M278.73 315.5C278.88 317.77 276.93 319.24 276.5 321.5C276.13 323.44 274.44 325.2 274.7 327.5C274.76 327.98 274.52 328.84 274.22 328.95C271.34 329.95 273.69 333.18 271.74 334.5C271.05 340.81 267.86 346.57 267.74 353C266.46 354.29 266.74 355.93 266.74 357.5C266.74 359.69 266.74 359.69 269.74 360" stroke="black" stroke-width="2" stroke-linecap="round" stroke-linejoin="round"/>
<path d="M368.64 326.5C368.11 328.77 366 328.09 364.64 328.42C361.45 329.17 360.21 330.36 359.64 333.49C358.98 337.02 358.04 340.49 357.18 344C356.07 348.45 354.44 352.79 354.67 357.5C354.77 359.69 354.76 359.7 357.67 360" stroke="black" stroke-width="2" stroke-linecap="round" stroke-linejoin="round"/>
<path d="M155.35 349C155.462 347.701 155.972 346.469 156.81 345.47C158.81 343.07 160.33 340.33 162.41 338.06C163.79 336.55 163.29 335.06 163.28 333.5C163.27 331.94 161.28 331.28 159.84 331.99C156.981 333.516 154.569 335.76 152.84 338.5" stroke="black" stroke-width="2" stroke-linecap="round" stroke-linejoin="round"/>
<path d="M261.25 337.5C261.42 339.34 259.58 339.18 258.79 340.04C256.02 343.04 254.59 346.91 252.79 350.52C252.35 351.41 252.86 352.34 253.73 353.02C253.888 353.197 254.081 353.339 254.297 353.436C254.514 353.533 254.748 353.583 254.985 353.583C255.222 353.583 255.457 353.533 255.673 353.436C255.889 353.339 256.082 353.197 256.24 353.02C258.58 350.69 260.9 348.35 263.24 346.02L264.74 344.52" stroke="black" stroke-width="2" stroke-linecap="round" stroke-linejoin="round"/>
<path d="M194.81 342.5C194.52 341.5 194.22 340.5 193.81 339.11C192.81 339.84 191.81 340.27 191.35 341.03C190.05 343.11 189.26 345.57 187.72 347.43C186.43 348.98 186.98 350.48 186.87 352C186.898 352.304 187.005 352.594 187.18 352.844C187.356 353.093 187.594 353.292 187.87 353.42C188.207 353.488 188.554 353.483 188.889 353.406C189.224 353.328 189.538 353.179 189.81 352.97C192.54 350.2 195.17 347.33 197.81 344.5" stroke="black" stroke-width="2" stroke-linecap="round" stroke-linejoin="round"/>
<path d="M60.9404 344.5L62.7204 347.6C63.4884 347.263 64.1772 346.768 64.7421 346.148C65.3071 345.528 65.7357 344.796 66.0004 344C68.0704 339.38 69.8204 334.56 72.9404 330.49C73.3504 329.96 74.3704 329.4 74.8704 329.57C75.1795 329.779 75.4325 330.06 75.6069 330.39C75.7813 330.72 75.8718 331.087 75.8704 331.46C75.6704 334.13 75.6504 336.92 74.8204 339.46C73.8904 342.28 73.2604 345.16 72.4204 347.99C71.6304 350.67 70.7604 353.32 69.9304 355.99" stroke="black" stroke-width="2" stroke-linecap="round" stroke-linejoin="round"/>
<path d="M39 344.5L40.78 347.6C41.5369 347.256 42.2139 346.758 42.7682 346.138C43.3226 345.519 43.742 344.79 44 344C46.08 339.38 47.83 334.56 50.95 330.49C51.35 329.96 52.37 329.4 52.87 329.57C53.1791 329.779 53.4321 330.06 53.6065 330.39C53.7809 330.72 53.8714 331.087 53.87 331.46C53.67 334.13 53.65 336.92 52.87 339.46C51.93 342.28 51.3 345.16 50.46 347.99C49.67 350.67 48.81 353.32 47.97 355.99" stroke="black" stroke-width="2" stroke-linecap="round" stroke-linejoin="round"/>
<path d="M1 353.5C3.31 356.5 4.1 356.85 6 354.97C7.9 353.09 10.51 351.35 11.52 348.5C11.7699 347.858 11.9346 347.185 12.01 346.5C12.14 344.58 11.4 344.07 9.54999 345.04C7.69999 346.01 5.55001 345.96 4.04001 347.5" stroke="black" stroke-width="2" stroke-linecap="round" stroke-linejoin="round"/>
<path d="M114.89 355.5C117.09 353.88 118.15 351.03 120.89 350C123 344.9 128.02 341.75 129.89 336.49C130.22 335.702 130.38 334.854 130.36 334C130.314 333.616 130.18 333.247 129.968 332.923C129.755 332.6 129.47 332.33 129.135 332.136C128.801 331.942 128.425 331.829 128.039 331.805C127.652 331.781 127.266 331.848 126.91 332C125.91 332.4 124.91 333 123.91 333.48" stroke="black" stroke-width="2" stroke-linecap="round" stroke-linejoin="round"/>
<path d="M427.59 333.5C426.68 338.5 423.72 342.5 421.01 346.5C418.63 350.01 417.85 349.81 414.1 346.5" stroke="black" stroke-width="2" stroke-linecap="round" stroke-linejoin="round"/>
<path d="M279.73 338.5C278.56 343.67 277.38 348.83 276.26 354.01C276.17 354.838 276.17 355.672 276.26 356.5" stroke="black" stroke-width="2" stroke-linecap="round" stroke-linejoin="round"/>
<path d="M174.33 332C172.33 334.1 171.82 336.62 171.74 339.5C171.66 342.38 170.84 345.5 170.33 348.5C170.121 349.323 169.964 350.158 169.86 351C169.8 352.5 169.78 354 169.86 355.5" stroke="black" stroke-width="2" stroke-linecap="round" stroke-linejoin="round"/>
<path d="M311.2 334.5C310.87 335.42 310.02 336.5 310.29 337.21C311.22 339.49 309.91 341.12 309.23 343.01C307.947 346.926 306.434 350.762 304.7 354.5" stroke="black" stroke-width="2" stroke-linecap="round" stroke-linejoin="round"/>
<path d="M390.12 334.5C389.79 335.42 388.94 336.5 389.22 337.21C390.14 339.49 388.83 341.12 388.15 343.01C386.87 346.925 385.361 350.762 383.63 354.5" stroke="black" stroke-width="2" stroke-linecap="round" stroke-linejoin="round"/>
<path d="M388.87 337C384.87 338.59 382.87 342.07 380.51 345.41C379.41 346.99 379.16 349.57 376.64 350" stroke="black" stroke-width="2" stroke-linecap="round" stroke-linejoin="round"/>
<path d="M310 337C306 338.59 304 342.07 301.63 345.41C300.54 346.99 300.29 349.57 297.76 350" stroke="black" stroke-width="2" stroke-linecap="round" stroke-linejoin="round"/>
<path d="M239.77 342.5C236.68 344.71 235.01 348.1 232.77 351.03C231.49 352.74 230.82 354.93 228.91 356.13C227.64 355.51 226.6 354.98 226.74 353.5C226.91 351.67 227.05 349.83 227.25 348C227.37 346.83 227.57 345.67 227.74 344.5" stroke="black" stroke-width="2" stroke-linecap="round" stroke-linejoin="round"/>
<path d="M367.64 314.5C367.31 314.67 366.79 314.75 366.64 315.01C364.94 319.01 363.26 323.01 361.64 327.01C361.49 327.38 361.93 328.01 362.1 328.49" stroke="black" stroke-width="2" stroke-linecap="round" stroke-linejoin="round"/>
<path d="M408.6 338.5C408.75 341.5 407.29 344.09 406.91 346.97C406.767 348.515 407.008 350.071 407.61 351.5C410.45 351.04 410.19 347.79 412.1 346.5" stroke="black" stroke-width="2" stroke-linecap="round" stroke-linejoin="round"/>
<path d="M12.0003 340.5C12.5003 339 13.0603 337.5 13.4503 335.99C13.4853 335.728 13.4592 335.462 13.3742 335.213C13.2892 334.963 13.1475 334.736 12.9603 334.55C12.7413 334.429 12.4953 334.366 12.2453 334.366C11.9952 334.366 11.7492 334.429 11.5303 334.55C8.98027 337.33 6.37026 340.09 4.12026 343.1C3.75552 343.591 3.54953 344.182 3.52987 344.793C3.51021 345.404 3.67784 346.007 4.01028 346.52" stroke="black" stroke-width="2" stroke-linecap="round" stroke-linejoin="round"/>
<path d="M29.47 331.5C28.67 333.28 28.29 335.25 27.68 337.07C26.68 340.18 25.05 343.37 25.86 347.02C26.2 348.54 24.92 350.37 25.07 352.02C25.28 354.13 22.91 354.7 22.98 356.53" stroke="black" stroke-width="2" stroke-linecap="round" stroke-linejoin="round"/>
<path d="M351.16 331.5C350.66 333 350.04 334.5 349.69 336.01C348.82 339.8 346.56 343.19 347.47 347.54C347.91 349.64 346.33 352.17 345.67 354.54" stroke="black" stroke-width="2" stroke-linecap="round" stroke-linejoin="round"/>
<path d="M60.4402 345.5C57.5302 346.94 55.4402 348.9 55.3702 352.5C55.3702 353.5 54.4502 354.5 53.9502 355.5" stroke="black" stroke-width="2" stroke-linecap="round" stroke-linejoin="round"/>
<path d="M19.4803 338.5C18.9668 341.046 18.2717 343.553 17.4003 346C17.1178 346.655 17.0225 347.376 17.1249 348.082C17.2273 348.788 17.5234 349.452 17.9803 350" stroke="black" stroke-width="2" stroke-linecap="round" stroke-linejoin="round"/>
<path d="M341.17 338.5C340.62 340.873 339.929 343.21 339.1 345.5C338.83 346.134 338.697 346.818 338.709 347.507C338.721 348.197 338.878 348.876 339.17 349.5" stroke="black" stroke-width="2" stroke-linecap="round" stroke-linejoin="round"/>
<path d="M91.4102 341.5C91.6202 343.5 92.1001 345.4 91.4901 347.5C90.7954 350.468 90.268 353.473 89.9102 356.5" stroke="black" stroke-width="2" stroke-linecap="round" stroke-linejoin="round"/>
<path d="M122.38 349C123.701 349.245 125.038 349.402 126.38 349.47C128.588 349.375 130.793 349.715 132.87 350.47" stroke="black" stroke-width="2" stroke-linecap="round" stroke-linejoin="round"/>
<path d="M35.0005 337.5C34.6605 340.17 34.2305 342.83 34.0605 345.5C34.0005 346.31 34.6605 347.17 35.0005 348" stroke="black" stroke-width="2" stroke-linecap="round" stroke-linejoin="round"/>
<path d="M147.86 356.5C148.93 353.69 151.96 352.58 153.44 350.05C153.8 349.658 154.251 349.361 154.754 349.186C155.257 349.012 155.795 348.965 156.32 349.05C159.44 350.05 162.9 348.55 165.84 350.46" stroke="black" stroke-width="2" stroke-linecap="round" stroke-linejoin="round"/>
<path d="M346.66 343.5C346 343.83 344.93 344.01 344.73 344.5C343.52 347.57 340.85 349.3 338.67 351.5" stroke="black" stroke-width="2" stroke-linecap="round" stroke-linejoin="round"/>
<path d="M376.64 340.5C376.357 341.984 376.207 343.49 376.19 345C376.3 346.51 375.08 347.86 376.03 349.56C376.55 350.48 376.03 351.83 375.27 353.08C374.37 354.57 374.47 356.67 374.14 358.5" stroke="black" stroke-width="2" stroke-linecap="round" stroke-linejoin="round"/>
<path d="M297.71 340.5C297.436 341.985 297.289 343.49 297.27 345C297.38 346.51 296.16 347.86 297.11 349.56C297.62 350.48 297.11 351.83 296.35 353.08C295.44 354.57 295.55 356.67 295.21 358.5" stroke="black" stroke-width="2" stroke-linecap="round" stroke-linejoin="round"/>
<path d="M56.9402 337.5C56.6102 339.67 56.2002 341.83 55.9902 344C56.0236 344.851 56.1785 345.693 56.4503 346.5" stroke="black" stroke-width="2" stroke-linecap="round" stroke-linejoin="round"/>
<path d="M97.9102 342C98.5202 344.84 96.7402 347 95.9102 349.5" stroke="black" stroke-width="2" stroke-linecap="round" stroke-linejoin="round"/>
<path d="M25 343.5C24.33 344 23.36 344.36 23 345.02C21.69 347.88 19.18 349.54 17 351.5" stroke="black" stroke-width="2" stroke-linecap="round" stroke-linejoin="round"/>
<path d="M38.46 346C34.46 347.67 33.68 351.48 32.46 355" stroke="black" stroke-width="2" stroke-linecap="round" stroke-linejoin="round"/>
<path d="M100.9 335.5L97.4102 341.5C94.7602 341.27 94.6302 344.62 92.4102 345" stroke="black" stroke-width="2" stroke-linecap="round" stroke-linejoin="round"/>
<path d="M275.23 328C276.046 328.239 276.884 328.393 277.73 328.46C278.741 328.385 279.744 328.231 280.73 328" stroke="black" stroke-width="2" stroke-linecap="round" stroke-linejoin="round"/>
<path d="M283.73 323.5C282.85 324.98 282.86 326.95 281.23 328C282.58 330 280.23 331.61 280.73 333.5" stroke="black" stroke-width="2" stroke-linecap="round" stroke-linejoin="round"/>
<path d="M399.61 339C398.336 339.054 397.115 339.526 396.135 340.343C395.156 341.16 394.472 342.276 394.19 343.52C393.3 347.09 390.81 350.59 392.86 354.52C395.86 354.69 397.76 352.94 399.02 350.98C400.28 349.02 402.02 346.83 401.63 344.04C401.49 342.89 401.77 341.67 401.54 340.55C401.43 339.98 400.61 339.55 400.11 339.04" stroke="black" stroke-width="2" stroke-linecap="round" stroke-linejoin="round"/>
<path d="M330.68 339C326.54 340.57 324.9 344.25 324.38 348C324.09 350.11 322.01 353 325.38 355.11C329.031 353.166 331.788 349.883 333.07 345.95C333.626 344.345 333.777 342.627 333.51 340.95C333.4 340.17 331.97 339.6 331.14 338.95" stroke="black" stroke-width="2" stroke-linecap="round" stroke-linejoin="round"/>
<path d="M206.8 339C202.8 340.2 202.12 343.89 200.87 347C200.313 348.198 200.062 349.516 200.139 350.835C200.215 352.155 200.618 353.434 201.31 354.56C205.05 354.04 206.9 351.05 208.7 348.4C210.24 346.15 210.02 343.17 209.7 340.48C209.576 339.966 209.255 339.522 208.805 339.245C208.355 338.968 207.814 338.88 207.3 339" stroke="black" stroke-width="2" stroke-linecap="round" stroke-linejoin="round"/>
<path d="M29.532 57.816V67.108C29.44 69.868 28.888 72.352 27.876 74.468C27.048 76.308 25.76 78.056 23.92 79.436C22.08 80.908 19.596 81.736 16.284 81.736C12.972 81.736 10.396 80.908 8.556 79.436C6.716 78.056 5.52 76.308 4.692 74.468C3.68 72.352 3.128 69.868 3.036 67.108V27.272C3.128 24.604 3.68 22.12 4.692 20.004C5.52 18.164 6.716 16.324 8.556 14.944C10.396 13.564 12.972 12.644 16.284 12.644C19.596 12.644 22.08 13.564 23.92 14.944C25.76 16.324 27.048 18.164 27.876 20.004C28.888 22.12 29.44 24.604 29.532 27.272V36.564H20.24V27.272C20.24 25.432 19.78 24.144 18.768 23.04C18.308 22.58 17.48 22.304 16.468 22.304C14.72 22.304 13.892 23.592 13.432 24.788C13.156 25.524 13.064 26.352 12.972 27.272V67.108C13.064 69.04 13.616 70.328 14.536 71.34C14.996 71.8 15.64 72.076 16.468 72.076C18.584 72.076 19.412 70.972 19.872 69.592C20.148 68.948 20.24 68.12 20.24 67.108V57.816H29.532ZM48.3647 13.38H58.3007V71.8H71.4567V81H48.3647V13.38ZM86.5159 81L96.7279 13.38H108.872L119.084 81H109.424L107.584 67.2H98.0159L96.1759 81H86.5159ZM103.352 35.368L103.076 33.62H102.524L102.248 35.368L99.3959 56.712H106.204L103.352 35.368ZM152.136 31.504C152.136 29.296 152.044 26.812 151.4 24.88C150.756 23.04 149.744 21.752 148.18 21.752C145.604 21.844 144.776 24.512 144.776 28.468C144.776 30.768 145.788 33.16 147.26 35.736C148.732 38.312 150.664 40.98 152.596 43.832C154.896 47.236 157.196 50.732 158.944 54.136C160.692 57.54 161.888 61.036 161.888 64.716C161.888 69.224 161.152 73.456 159.036 76.584C156.92 79.712 153.516 81.736 148.088 81.736C141.74 81.736 138.152 79.344 136.128 75.664C134.104 71.984 133.644 67.108 133.644 62.048L143.396 61.128C143.396 63.98 143.488 66.832 144.224 68.948C144.868 71.156 145.972 72.628 148.088 72.628C151.032 72.628 152.136 69.5 152.136 65.176C152.136 62.968 151.032 60.392 149.56 57.724C148.732 56.436 147.904 55.056 146.984 53.676C145.052 50.916 142.936 47.788 140.728 44.384C138.52 40.98 136.864 37.484 135.852 33.896C135.3 32.148 135.024 30.308 135.024 28.468C135.024 24.788 135.852 20.832 137.968 17.796C140.084 14.852 143.304 12.736 147.996 12.644C153.976 12.552 157.472 15.036 159.404 18.624C161.336 22.304 161.888 26.812 161.888 30.584L152.136 31.504ZM196.551 31.504C196.551 29.296 196.459 26.812 195.815 24.88C195.171 23.04 194.159 21.752 192.595 21.752C190.019 21.844 189.191 24.512 189.191 28.468C189.191 30.768 190.203 33.16 191.675 35.736C193.147 38.312 195.079 40.98 197.011 43.832C199.311 47.236 201.611 50.732 203.359 54.136C205.107 57.54 206.303 61.036 206.303 64.716C206.303 69.224 205.567 73.456 203.451 76.584C201.335 79.712 197.931 81.736 192.503 81.736C186.155 81.736 182.567 79.344 180.543 75.664C178.519 71.984 178.059 67.108 178.059 62.048L187.811 61.128C187.811 63.98 187.903 66.832 188.639 68.948C189.283 71.156 190.387 72.628 192.503 72.628C195.447 72.628 196.551 69.5 196.551 65.176C196.551 62.968 195.447 60.392 193.975 57.724C193.147 56.436 192.319 55.056 191.399 53.676C189.467 50.916 187.351 47.788 185.143 44.384C182.935 40.98 181.279 37.484 180.267 33.896C179.715 32.148 179.439 30.308 179.439 28.468C179.439 24.788 180.267 20.832 182.383 17.796C184.499 14.852 187.719 12.736 192.411 12.644C198.391 12.552 201.887 15.036 203.819 18.624C205.751 22.304 206.303 26.812 206.303 30.584L196.551 31.504ZM224.498 13.38H234.434V81H224.498V13.38ZM280.57 57.816V67.108C280.478 69.868 279.926 72.352 278.914 74.468C278.086 76.308 276.798 78.056 274.958 79.436C273.118 80.908 270.634 81.736 267.322 81.736C264.01 81.736 261.434 80.908 259.594 79.436C257.754 78.056 256.558 76.308 255.73 74.468C254.718 72.352 254.166 69.868 254.074 67.108V27.272C254.166 24.604 254.718 22.12 255.73 20.004C256.558 18.164 257.754 16.324 259.594 14.944C261.434 13.564 264.01 12.644 267.322 12.644C270.634 12.644 273.118 13.564 274.958 14.944C276.798 16.324 278.086 18.164 278.914 20.004C279.926 22.12 280.478 24.604 280.57 27.272V36.564H271.278V27.272C271.278 25.432 270.818 24.144 269.806 23.04C269.346 22.58 268.518 22.304 267.506 22.304C265.758 22.304 264.93 23.592 264.47 24.788C264.194 25.524 264.102 26.352 264.01 27.272V67.108C264.102 69.04 264.654 70.328 265.574 71.34C266.034 71.8 266.678 72.076 267.506 72.076C269.622 72.076 270.45 70.972 270.91 69.592C271.186 68.948 271.278 68.12 271.278 67.108V57.816H280.57ZM298.115 70.788H307.775V81H298.115V70.788ZM0.184 123.592V113.38H28.888V123.592H19.504V181H9.568V123.592H0.184ZM45.6694 113.38H55.6054V181H45.6694V113.38ZM92.3572 181L86.0092 138.496L85.6412 135.644H85.0892V181H75.8892V113.38H88.0332L93.9212 144.292L94.3812 147.88H94.5652L95.0252 144.292L100.913 113.38H113.057V181H103.857V135.644H103.305L102.937 138.496L96.5892 181H92.3572ZM133.332 113.38H156.056V123.592H143.268V141.348H152.468V152.204H143.268V170.788H156.056V181H133.332V113.38ZM174.423 113.38H184.359V171.8H197.515V181H174.423V113.38ZM214.435 113.38H237.159V123.592H224.371V141.348H233.571V152.204H224.371V170.788H237.159V181H214.435V113.38ZM271.994 131.504C271.994 129.296 271.902 126.812 271.258 124.88C270.614 123.04 269.602 121.752 268.038 121.752C265.462 121.844 264.634 124.512 264.634 128.468C264.634 130.768 265.646 133.16 267.118 135.736C268.59 138.312 270.522 140.98 272.454 143.832C274.754 147.236 277.054 150.732 278.802 154.136C280.55 157.54 281.746 161.036 281.746 164.716C281.746 169.224 281.01 173.456 278.894 176.584C276.778 179.712 273.374 181.736 267.946 181.736C261.598 181.736 258.01 179.344 255.986 175.664C253.962 171.984 253.502 167.108 253.502 162.048L263.254 161.128C263.254 163.98 263.346 166.832 264.082 168.948C264.726 171.156 265.83 172.628 267.946 172.628C270.89 172.628 271.994 169.5 271.994 165.176C271.994 162.968 270.89 160.392 269.418 157.724C268.59 156.436 267.762 155.056 266.842 153.676C264.91 150.916 262.794 147.788 260.586 144.384C258.378 140.98 256.722 137.484 255.71 133.896C255.158 132.148 254.882 130.308 254.882 128.468C254.882 124.788 255.71 120.832 257.826 117.796C259.942 114.852 263.162 112.736 267.854 112.644C273.834 112.552 277.33 115.036 279.262 118.624C281.194 122.304 281.746 126.812 281.746 130.584L271.994 131.504ZM316.41 131.504C316.41 129.296 316.318 126.812 315.674 124.88C315.03 123.04 314.018 121.752 312.454 121.752C309.878 121.844 309.05 124.512 309.05 128.468C309.05 130.768 310.062 133.16 311.534 135.736C313.006 138.312 314.938 140.98 316.87 143.832C319.17 147.236 321.47 150.732 323.218 154.136C324.966 157.54 326.162 161.036 326.162 164.716C326.162 169.224 325.426 173.456 323.31 176.584C321.194 179.712 317.79 181.736 312.362 181.736C306.014 181.736 302.426 179.344 300.402 175.664C298.378 171.984 297.918 167.108 297.918 162.048L307.67 161.128C307.67 163.98 307.762 166.832 308.498 168.948C309.142 171.156 310.246 172.628 312.362 172.628C315.306 172.628 316.41 169.5 316.41 165.176C316.41 162.968 315.306 160.392 313.834 157.724C313.006 156.436 312.178 155.056 311.258 153.676C309.326 150.916 307.21 147.788 305.002 144.384C302.794 140.98 301.138 137.484 300.126 133.896C299.574 132.148 299.298 130.308 299.298 128.468C299.298 124.788 300.126 120.832 302.242 117.796C304.358 114.852 307.578 112.736 312.27 112.644C318.25 112.552 321.746 115.036 323.678 118.624C325.61 122.304 326.162 126.812 326.162 130.584L316.41 131.504ZM343.069 170.788H352.729V181H343.069V170.788ZM3.68 213.38H26.404V223.592H13.616V241.348H22.816V252.204H13.616V270.788H26.404V281H3.68V213.38ZM70.6229 257.816V267.108C70.5309 269.868 69.9789 272.352 68.9669 274.468C68.1389 276.308 66.8509 278.056 65.0109 279.436C63.1709 280.908 60.6869 281.736 57.3749 281.736C54.0629 281.736 51.4869 280.908 49.6469 279.436C47.8069 278.056 46.6109 276.308 45.7829 274.468C44.7709 272.352 44.2189 269.868 44.1269 267.108V227.272C44.2189 224.604 44.7709 222.12 45.7829 220.004C46.6109 218.164 47.8069 216.324 49.6469 214.944C51.4869 213.564 54.0629 212.644 57.3749 212.644C60.6869 212.644 63.1709 213.564 65.0109 214.944C66.8509 216.324 68.1389 218.164 68.9669 220.004C69.9789 222.12 70.5309 224.604 70.6229 227.272V236.564H61.3309V227.272C61.3309 225.432 60.8709 224.144 59.8589 223.04C59.3989 222.58 58.5709 222.304 57.5589 222.304C55.8109 222.304 54.9829 223.592 54.5229 224.788C54.2469 225.524 54.1549 226.352 54.0629 227.272V267.108C54.1549 269.04 54.7069 270.328 55.6269 271.34C56.0869 271.8 56.7309 272.076 57.5589 272.076C59.6749 272.076 60.5029 270.972 60.9629 269.592C61.2389 268.948 61.3309 268.12 61.3309 267.108V257.816H70.6229ZM115.308 267.108C115.216 269.868 114.664 272.352 113.652 274.468C112.824 276.308 111.536 278.056 109.696 279.436C107.856 280.908 105.372 281.736 102.06 281.736C98.7476 281.736 96.1716 280.908 94.3316 279.436C92.4916 278.056 91.2956 276.308 90.4676 274.468C89.4556 272.352 88.9036 269.868 88.8116 267.108V227.272C88.9036 224.604 89.4556 222.12 90.4676 220.004C91.2956 218.164 92.4916 216.324 94.3316 214.944C96.1716 213.564 98.7476 212.644 102.06 212.644C105.372 212.644 107.856 213.564 109.696 214.944C111.536 216.324 112.824 218.164 113.652 220.004C114.664 222.12 115.216 224.604 115.308 227.272V267.108ZM105.372 227.272C105.372 225.432 105.004 224.144 104.084 223.04C103.624 222.58 102.888 222.304 102.06 222.304C100.312 222.304 99.4836 223.592 99.1156 224.788C98.8396 225.524 98.7476 226.352 98.7476 227.272V267.108C98.7476 269.04 99.2076 270.328 100.128 271.34C100.588 271.8 101.232 272.076 102.06 272.076C103.808 272.076 104.636 270.972 105.004 269.592C105.28 268.948 105.372 268.12 105.372 267.108V227.272ZM134.491 251.836H147.831V260.576H134.491V251.836ZM191.328 223.592H177.62V241.348H186.82V251.56H177.62V281H167.684V213.38H191.328V223.592ZM225.992 281L220.84 252.48H218.172V281H208.236V213.38H218.172C230.04 213.38 235.1 220.096 235.1 232.884C235.1 239.6 233.352 245.672 229.58 248.248L235.928 281H225.992ZM218.172 243.28C219.552 243.28 221.392 243.096 222.864 241.808C224.336 240.52 225.532 238.036 225.532 233.252C225.532 228.468 224.336 225.892 222.864 224.604C221.392 223.316 219.552 223.224 218.172 223.224V243.28ZM254.358 213.38H264.294V281H254.358V213.38ZM284.578 213.38H307.302V223.592H294.514V241.348H303.714V252.204H294.514V270.788H307.302V281H284.578V213.38ZM336.157 245.764L335.329 242.636H334.777V281H325.669V213.38H334.501L344.161 248.616L344.989 251.744H345.541V213.38H354.649V281H345.817L336.157 245.764ZM374.846 281V213.38H382.666C391.866 213.38 396.834 215.22 399.502 220.372C402.078 225.524 402.446 233.988 402.446 247.236C402.446 260.484 402.078 268.856 399.502 274.008C396.834 279.16 391.866 281 382.666 281H374.846ZM384.782 271.064C388.186 271.064 390.118 270.696 391.13 267.384C391.59 265.82 391.958 263.428 392.05 260.208C392.142 256.988 392.142 252.664 392.142 247.144C392.142 241.624 392.142 237.3 392.05 234.08C391.958 230.952 391.59 228.56 391.13 226.904C390.118 223.684 388.186 223.316 384.782 223.316V271.064ZM421.957 213.38H431.893V271.8H445.049V281H421.957V213.38ZM471.856 235L472.132 235.644H472.316L472.592 235L477.56 213.38H487.312L477.192 252.204V281H467.256V252.204L457.136 213.38H466.888L471.856 235ZM503.21 270.788H512.87V281H503.21V270.788Z" fill="#191919"/>
</svg>
